<svg width="24" height="24" viewBox="0 0 24 24" fill="none" xmlns="http://www.w3.org/2000/svg">
<path d="M16.7177 16.7178C16.7177 15.5018 17.7034 14.5161 18.9194 14.5161C20.1353 14.5161 21.121 15.5018 21.121 16.7178C21.121 17.9337 20.1353 18.9194 18.9194 18.9194C17.7034 18.9194 16.7177 17.9337 16.7177 16.7178ZM16.7177 7.28227C16.7177 6.06635 17.7034 5.08066 18.9194 5.08066C20.1353 5.08066 21.121 6.06635 21.121 7.28227C21.121 8.49819 20.1353 9.48388 18.9194 9.48388C17.7034 9.48388 16.7177 8.49819 16.7177 7.28227ZM3.19355 16.4032H12.629C12.8025 16.4032 12.9435 16.5443 12.9435 16.7178C12.9435 16.8912 12.8025 17.0323 12.629 17.0323H3.19355C3.02011 17.0323 2.87903 16.8912 2.87903 16.7178C2.87903 16.5443 3.02011 16.4032 3.19355 16.4032ZM3.19355 6.96776H12.629C12.8025 6.96776 12.9435 7.10884 12.9435 7.28227C12.9435 7.45571 12.8025 7.59679 12.629 7.59679H3.19355C3.02011 7.59679 2.87903 7.45571 2.87903 7.28227C2.87903 7.10884 3.02011 6.96776 3.19355 6.96776Z" fill="#010101" stroke="#0C6DBB" stroke-width="1.25806"/>
</svg>
