<svg width="18" height="18" viewBox="0 0 18 18" fill="none" xmlns="http://www.w3.org/2000/svg">
<path fill-rule="evenodd" clip-rule="evenodd" d="M0.666504 16.8794C0.666504 16.4191 1.0396 16.046 1.49984 16.046H16.4998C16.9601 16.046 17.3332 16.4191 17.3332 16.8794C17.3332 17.3396 16.9601 17.7127 16.4998 17.7127H1.49984C1.0396 17.7127 0.666504 17.3396 0.666504 16.8794Z" fill="#0C6DBB"/>
<path fill-rule="evenodd" clip-rule="evenodd" d="M3.99984 6.87933C4.46007 6.87933 4.83317 7.25242 4.83317 7.71266V14.3793C4.83317 14.8396 4.46007 15.2127 3.99984 15.2127C3.5396 15.2127 3.1665 14.8396 3.1665 14.3793V7.71266C3.1665 7.25242 3.5396 6.87933 3.99984 6.87933Z" fill="#0C6DBB"/>
<path fill-rule="evenodd" clip-rule="evenodd" d="M7.33317 6.87933C7.79342 6.87933 8.1665 7.25242 8.1665 7.71266V14.3793C8.1665 14.8396 7.79342 15.2127 7.33317 15.2127C6.87294 15.2127 6.49984 14.8396 6.49984 14.3793V7.71266C6.49984 7.25242 6.87294 6.87933 7.33317 6.87933Z" fill="#0C6DBB"/>
<path fill-rule="evenodd" clip-rule="evenodd" d="M10.6665 6.87933C11.1268 6.87933 11.4998 7.25242 11.4998 7.71266V14.3793C11.4998 14.8396 11.1268 15.2127 10.6665 15.2127C10.2063 15.2127 9.83317 14.8396 9.83317 14.3793V7.71266C9.83317 7.25242 10.2063 6.87933 10.6665 6.87933Z" fill="#0C6DBB"/>
<path fill-rule="evenodd" clip-rule="evenodd" d="M13.9998 6.87933C14.4601 6.87933 14.8332 7.25242 14.8332 7.71266V14.3793C14.8332 14.8396 14.4601 15.2127 13.9998 15.2127C13.5396 15.2127 13.1665 14.8396 13.1665 14.3793V7.71266C13.1665 7.25242 13.5396 6.87933 13.9998 6.87933Z" fill="#0C6DBB"/>
<path fill-rule="evenodd" clip-rule="evenodd" d="M8.72283 0.318429C8.90516 0.276995 9.0945 0.276995 9.27683 0.318429C9.49333 0.367629 9.68 0.486887 9.77 0.544379C9.77933 0.550362 9.78766 0.55567 9.79483 0.56017L16.1082 4.506C16.4234 4.70303 16.57 5.08505 16.4675 5.4424C16.3651 5.79975 16.0382 6.046 15.6665 6.046H2.33316C1.96141 6.046 1.63461 5.79975 1.53212 5.4424C1.42964 5.08505 1.57625 4.70303 1.8915 4.506L8.20483 0.56017C8.212 0.55567 8.22033 0.550362 8.22966 0.544379C8.31966 0.486887 8.50633 0.367629 8.72283 0.318429Z" fill="#0C6DBB"/>
</svg>
