<svg width="24" height="25" viewBox="0 0 24 25" fill="none" xmlns="http://www.w3.org/2000/svg">
<path d="M11.491 12.7023C11.4216 12.7012 11.3413 12.7012 11.2422 12.7012C10.828 12.7012 10.4922 12.3654 10.4922 11.9512C10.4922 11.537 10.828 11.2012 11.2422 11.2012L11.2766 11.2012C11.4817 11.2011 11.7035 11.201 11.8908 11.2262C12.1101 11.2557 12.3903 11.3315 12.6261 11.5673C12.8619 11.8031 12.9377 12.0833 12.9672 12.3026C12.9924 12.4898 12.9923 12.7116 12.9922 12.9167L12.9922 17.9512C12.9922 18.3654 12.6564 18.7012 12.2422 18.7012C11.828 18.7012 11.4922 18.3654 11.4922 17.9512V12.9512C11.4922 12.8521 11.4922 12.7718 11.491 12.7023Z" fill="#0C6DBB"/>
<path d="M11.9922 7.95117C11.4399 7.95117 10.9922 8.39889 10.9922 8.95117C10.9922 9.50346 11.4399 9.95117 11.9922 9.95117H12.0012C12.5535 9.95117 13.0012 9.50346 13.0012 8.95117C13.0012 8.39889 12.5535 7.95117 12.0012 7.95117H11.9922Z" fill="#0C6DBB"/>
<path fill-rule="evenodd" clip-rule="evenodd" d="M1.25 12.9512C1.25 18.8882 6.06294 23.7012 12 23.7012C17.9371 23.7012 22.75 18.8882 22.75 12.9512C22.75 7.01411 17.9371 2.20117 12 2.20117C6.06294 2.20117 1.25 7.01411 1.25 12.9512ZM12 22.2012C6.89137 22.2012 2.75 18.0598 2.75 12.9512C2.75 7.84254 6.89137 3.70117 12 3.70117C17.1086 3.70117 21.25 7.84254 21.25 12.9512C21.25 18.0598 17.1086 22.2012 12 22.2012Z" fill="#0C6DBB"/>
<path d="M11.491 12.7023C11.4216 12.7012 11.3413 12.7012 11.2422 12.7012C10.828 12.7012 10.4922 12.3654 10.4922 11.9512C10.4922 11.537 10.828 11.2012 11.2422 11.2012L11.2766 11.2012C11.4817 11.2011 11.7035 11.201 11.8908 11.2262C12.1101 11.2557 12.3903 11.3315 12.6261 11.5673C12.8619 11.8031 12.9377 12.0833 12.9672 12.3026C12.9924 12.4898 12.9923 12.7116 12.9922 12.9167L12.9922 17.9512C12.9922 18.3654 12.6564 18.7012 12.2422 18.7012C11.828 18.7012 11.4922 18.3654 11.4922 17.9512V12.9512C11.4922 12.8521 11.4922 12.7718 11.491 12.7023Z" stroke="#0C6DBB" stroke-width="0.5" stroke-linecap="round" stroke-linejoin="round"/>
<path d="M11.9922 7.95117C11.4399 7.95117 10.9922 8.39889 10.9922 8.95117C10.9922 9.50346 11.4399 9.95117 11.9922 9.95117H12.0012C12.5535 9.95117 13.0012 9.50346 13.0012 8.95117C13.0012 8.39889 12.5535 7.95117 12.0012 7.95117H11.9922Z" stroke="#0C6DBB" stroke-width="0.5" stroke-linecap="round" stroke-linejoin="round"/>
<path fill-rule="evenodd" clip-rule="evenodd" d="M1.25 12.9512C1.25 18.8882 6.06294 23.7012 12 23.7012C17.9371 23.7012 22.75 18.8882 22.75 12.9512C22.75 7.01411 17.9371 2.20117 12 2.20117C6.06294 2.20117 1.25 7.01411 1.25 12.9512ZM12 22.2012C6.89137 22.2012 2.75 18.0598 2.75 12.9512C2.75 7.84254 6.89137 3.70117 12 3.70117C17.1086 3.70117 21.25 7.84254 21.25 12.9512C21.25 18.0598 17.1086 22.2012 12 22.2012Z" stroke="#0C6DBB" stroke-width="0.5" stroke-linecap="round" stroke-linejoin="round"/>
</svg>
