<svg width="12" height="10" viewBox="0 0 12 10" fill="none" xmlns="http://www.w3.org/2000/svg">
<path d="M6 9.5L5.94995 9.42495C5.60265 8.904 5.429 8.6435 5.19955 8.4549C4.99643 8.28795 4.76238 8.1627 4.51081 8.0863C4.22663 8 3.91356 8 3.28741 8H2.6C2.03994 8 1.75992 8 1.54601 7.891C1.35785 7.79515 1.20486 7.64215 1.10899 7.454C1 7.2401 1 6.96005 1 6.4V2.1C1 1.53994 1 1.25992 1.10899 1.04601C1.20486 0.857845 1.35785 0.704865 1.54601 0.608995C1.75992 0.5 2.03994 0.5 2.6 0.5H2.8C3.9201 0.5 4.48015 0.5 4.90798 0.717985C5.2843 0.909735 5.59025 1.2157 5.782 1.59202C6 2.01984 6 2.57989 6 3.7M6 9.5V3.7M6 9.5L6.05005 9.42495C6.39735 8.904 6.571 8.6435 6.80045 8.4549C7.00355 8.28795 7.2376 8.1627 7.4892 8.0863C7.77335 8 8.08645 8 8.7126 8H9.4C9.96005 8 10.2401 8 10.454 7.891C10.6422 7.79515 10.7951 7.64215 10.891 7.454C11 7.2401 11 6.96005 11 6.4V2.1C11 1.53994 11 1.25992 10.891 1.04601C10.7951 0.857845 10.6422 0.704865 10.454 0.608995C10.2401 0.5 9.96005 0.5 9.4 0.5H9.2C8.0799 0.5 7.51985 0.5 7.092 0.717985C6.7157 0.909735 6.40975 1.2157 6.218 1.59202C6 2.01984 6 2.57989 6 3.7" stroke="#15C5CE" stroke-linecap="round" stroke-linejoin="round"/>
</svg>
