<svg width="24" height="24" viewBox="0 0 24 24" fill="none" xmlns="http://www.w3.org/2000/svg">
<path d="M13.9216 21H11.7176C11.2518 21 10.8738 20.622 10.8738 20.1562C10.8738 19.6904 11.2518 19.3124 11.7176 19.3124H13.9216C14.5809 19.3124 15.1446 18.8635 15.2931 18.22L15.679 16.5875C15.7859 16.1341 16.2393 15.8562 16.6938 15.9597C17.1461 16.0666 17.4273 16.5222 17.3205 16.9745L16.9357 18.6025C16.6128 20.0122 15.3718 21 13.9216 21Z" fill="#0C6DBB"/>
<path d="M17.7784 17.6248H16.4992C16.2438 17.6248 16.003 17.5089 15.8421 17.3109C15.6812 17.1129 15.6205 16.8518 15.6745 16.6032L16.8941 10.9779C17.0111 10.5031 17.0617 10.1206 17.0617 9.75041C17.0617 6.95912 14.7902 4.6876 11.9989 4.6876C9.20758 4.6876 6.93607 6.95912 6.93607 9.75041C6.93607 10.1206 6.98782 10.5031 7.09921 10.9554L8.3244 16.6032C8.37841 16.853 8.31653 17.1129 8.15677 17.3109C7.99588 17.51 7.75512 17.6248 7.49973 17.6248H6.22053C4.77481 17.6248 3.50236 16.5987 3.19634 15.1867L2.81945 13.4485C2.5213 12.0714 3.19297 10.6662 4.44967 10.0317L5.25072 9.62778C5.3171 5.96231 8.31878 3 12 3C15.6812 3 18.6829 5.96231 18.7493 9.62778L19.5503 10.0317C20.807 10.6662 21.4787 12.0714 21.1806 13.4485L20.8037 15.1867C20.4976 16.5998 19.2241 17.6248 17.7784 17.6248Z" fill="#0C6DBB"/>
</svg>
