<svg width="14" height="14" viewBox="0 0 14 14" fill="none" xmlns="http://www.w3.org/2000/svg">
<path d="M7.66668 0.999919C7.66668 0.631732 7.36821 0.333252 7.00001 0.333252C6.63181 0.333252 6.33334 0.631732 6.33334 0.999919V8.72379L3.47142 5.86185C3.21106 5.6015 2.78896 5.6015 2.5286 5.86185C2.26826 6.12219 2.26826 6.54432 2.5286 6.80465L6.52861 10.8047C6.78894 11.065 7.21108 11.065 7.47141 10.8047L11.4714 6.80465C11.7317 6.54432 11.7317 6.12219 11.4714 5.86185C11.2111 5.6015 10.7889 5.6015 10.5286 5.86185L7.66668 8.72379V0.999919Z" fill="#212121"/>
<path d="M0.333344 12.9999C0.333344 12.6317 0.631824 12.3333 1.00001 12.3333H13C13.3682 12.3333 13.6667 12.6317 13.6667 12.9999C13.6667 13.3681 13.3682 13.6666 13 13.6666H1.00001C0.631824 13.6666 0.333344 13.3681 0.333344 12.9999Z" fill="#212121"/>
</svg>
