<svg width="113" height="113" viewBox="0 0 113 113" fill="none" xmlns="http://www.w3.org/2000/svg">
<path fill-rule="evenodd" clip-rule="evenodd" d="M61.2075 5.88989C76.0905 5.88989 84.2934 5.88989 90.5414 10.2922C92.3352 11.554 93.9313 13.0607 95.2967 14.7698C100.057 20.7541 100.057 28.4145 100.057 43.6648V55.6476C100.057 70.0313 100.057 77.2494 97.5991 83.4455C93.6724 93.3566 85.4046 101.158 74.9144 104.84C69.2585 106.821 62.7379 107.077 51.1011 107.109C51.0431 107.114 50.9851 107.119 50.927 107.124C50.8588 107.129 50.7927 107.124 50.7279 107.11C49.1151 107.114 47.405 107.114 45.5866 107.114C36.7258 107.114 32.2756 107.114 28.3301 105.73C21.922 103.48 16.8653 98.7053 14.4594 92.6362C12.948 88.8272 12.948 84.6039 12.948 76.1951V54.948C12.948 52.9988 14.53 51.4168 16.4792 51.4168C18.4285 51.4168 20.0105 52.9988 20.0105 54.948V76.1947C20.0105 83.7085 20.0105 87.4807 21.0227 90.0372C22.6754 94.2041 26.1926 97.4999 30.6655 99.0725C33.4764 100.061 37.5207 100.061 45.5813 100.061C47.3819 100.061 49.0707 100.061 50.6574 100.058C56.7917 99.4436 61.5992 94.2498 61.5992 87.9567C61.5992 87.2038 61.5617 86.3925 61.5219 85.5347L61.5131 85.3439C61.3957 82.78 61.2628 79.8768 61.9852 77.1652C63.0352 73.2479 66.1192 70.1639 70.0365 69.114C72.7466 68.3919 75.6435 68.5243 78.211 68.6417L78.3991 68.6504C79.2595 68.6902 80.0731 68.7279 80.828 68.7279C87.4179 68.7279 92.8025 63.4562 92.9849 56.9095C92.9849 56.4973 92.9849 56.0786 92.9849 55.6532V43.6696C92.9849 30.0578 92.9849 23.226 89.7597 19.1721C88.818 17.9903 87.7116 16.9451 86.4639 16.074C82.2311 13.0936 75.2713 12.9618 61.1981 12.9618C59.2489 12.9618 57.6669 11.3798 57.6669 9.43056C57.6669 7.48131 59.2489 5.89931 61.1981 5.89931L61.2075 5.88989ZM92.7277 71.6537C89.452 74.243 85.317 75.7904 80.828 75.7904C79.9297 75.7904 79.011 75.7496 78.1137 75.7098C78.0469 75.7068 77.9801 75.7039 77.9136 75.7009L77.8387 75.6975C75.701 75.5996 73.5015 75.4989 71.8633 75.9411C70.3802 76.3366 69.2078 77.5089 68.8123 78.992C68.3708 80.6501 68.4728 82.8752 68.5715 85.0268L68.5722 85.0422C68.6193 86.0027 68.6617 86.9915 68.6617 87.9567C68.6617 92.3636 67.1704 96.4294 64.666 99.6759C67.8593 99.4078 70.3718 98.9533 72.5697 98.1827C81.1247 95.1787 87.8529 88.8601 91.0263 80.8512C91.9893 78.4206 92.4788 75.5484 92.7277 71.6537Z" fill="#010101"/>
<path d="M26.3165 20.5295C25.4115 21.6818 24.4593 22.8924 23.7198 23.6532C22.3605 25.0517 20.1248 25.0835 18.7263 23.7242C17.3278 22.3649 17.2961 20.1292 18.6554 18.7307C19.073 18.3011 19.7587 17.445 20.7625 16.1671L20.984 15.8849C21.8789 14.7448 22.9287 13.4074 24.0104 12.1308C25.1696 10.7628 26.4671 9.34185 27.7641 8.23717C28.4141 7.68359 29.1467 7.13756 29.9348 6.7158C30.6949 6.30903 31.7423 5.88989 32.9584 5.88989C34.1745 5.88989 35.2219 6.30903 35.982 6.7158C36.7701 7.13756 37.5027 7.68359 38.1527 8.23717C39.4497 9.34184 40.7472 10.7628 41.9064 12.1308C42.9881 13.4073 44.0379 14.7448 44.9328 15.8849L45.1544 16.1671C46.1582 17.445 46.8438 18.3011 47.2614 18.7307C48.6208 20.1292 48.589 22.3649 47.1905 23.7242C45.792 25.0835 43.5564 25.0517 42.1971 23.6532C41.4575 22.8924 40.5054 21.6818 39.6003 20.5295L39.3898 20.2614C38.4815 19.1044 37.5102 17.8672 36.5182 16.6965L36.4897 16.6629V47.0878C36.4897 49.0381 34.9087 50.6191 32.9584 50.6191C31.0082 50.6191 29.4272 49.0381 29.4272 47.0878V16.6629L29.3986 16.6965C28.4067 17.8672 27.4354 19.1043 26.5272 20.2612L26.3165 20.5295Z" fill="#010101"/>
</svg>
