<svg width="24" height="24" viewBox="0 0 24 24" fill="none" xmlns="http://www.w3.org/2000/svg">
<path d="M12.689 2.2963L12.6881 2.29575L12.655 2.27472C12.5446 2.20416 12.3868 2.10732 12.2216 2.06978C12.0757 2.03664 11.9243 2.03664 11.7784 2.06978C11.6132 2.10732 11.4554 2.20416 11.345 2.27472L11.3119 2.29575L11.311 2.2963L3.73501 7.0313L3.735 7.0313C3.54587 7.14951 3.45789 7.37872 3.51938 7.59313L12.689 2.2963ZM12.689 2.2963L20.265 7.0313L20.53 6.6073M12.689 2.2963L20.53 6.6073M20.53 6.6073L20.265 7.0313C20.4541 7.1495 20.5421 7.37869 20.4806 7.59312L20.4806 7.59323M20.53 6.6073L20.4806 7.59323M20.4806 7.59323C20.4191 7.80752 20.2231 7.9553 20 7.9553M20.4806 7.59323L20 7.9553M20 7.9553H4.00001M20 7.9553H4.00001M4.00001 7.9553C3.77696 7.9553 3.58088 7.80756 3.51938 7.59314L4.00001 7.9553ZM2.5 21.4553C2.5 21.1792 2.72386 20.9553 3 20.9553H21C21.2762 20.9553 21.5 21.1792 21.5 21.4553C21.5 21.7315 21.2762 21.9553 21 21.9553H3C2.72386 21.9553 2.5 21.7315 2.5 21.4553ZM6 9.95532C6.27614 9.95532 6.5 10.1792 6.5 10.4553V18.4553C6.5 18.7315 6.27614 18.9553 6 18.9553C5.72386 18.9553 5.5 18.7315 5.5 18.4553V10.4553C5.5 10.1792 5.72386 9.95532 6 9.95532ZM10 9.95532C10.2762 9.95532 10.5 10.1792 10.5 10.4553V18.4553C10.5 18.7315 10.2762 18.9553 10 18.9553C9.72386 18.9553 9.5 18.7315 9.5 18.4553V10.4553C9.5 10.1792 9.72386 9.95532 10 9.95532ZM14 9.95532C14.2762 9.95532 14.5 10.1792 14.5 10.4553V18.4553C14.5 18.7315 14.2762 18.9553 14 18.9553C13.7238 18.9553 13.5 18.7315 13.5 18.4553V10.4553C13.5 10.1792 13.7238 9.95532 14 9.95532ZM18 9.95532C18.2762 9.95532 18.5 10.1792 18.5 10.4553V18.4553C18.5 18.7315 18.2762 18.9553 18 18.9553C17.7238 18.9553 17.5 18.7315 17.5 18.4553V10.4553C17.5 10.1792 17.7238 9.95532 18 9.95532Z" fill="#0C6DBB" stroke="#0C6DBB"/>
</svg>
