<svg width="25" height="24" viewBox="0 0 25 24" fill="none" xmlns="http://www.w3.org/2000/svg">
<path d="M11.1303 13.319C11.0994 13.4002 11.0588 13.4703 11.0085 13.5288C10.9587 13.5883 10.8979 13.6344 10.8259 13.6676C10.754 13.7008 10.6659 13.7169 10.5631 13.7169C10.4188 13.7169 10.2994 13.6856 10.2035 13.6233C10.1075 13.5602 10.031 13.4776 9.97382 13.3739C9.91664 13.2711 9.87514 13.1539 9.84932 13.0253C9.82304 12.8966 9.81059 12.7652 9.81059 12.6324C9.81059 12.4992 9.82304 12.3687 9.84932 12.2391C9.87514 12.1095 9.91664 11.9933 9.97382 11.8905C10.031 11.7867 10.1075 11.7042 10.2035 11.641C10.2994 11.5779 10.4192 11.5474 10.5631 11.5474C10.6881 11.5474 10.7909 11.571 10.8702 11.6184C10.9495 11.6669 11.0132 11.7222 11.0611 11.7849C11.1091 11.8481 11.1423 11.9108 11.1607 11.9758C11.1792 12.0399 11.1921 12.0911 11.1994 12.128H12.3836C12.3319 11.63 12.1576 11.2454 11.8602 10.9743C11.5633 10.7031 11.1418 10.5653 10.5963 10.5616C10.2901 10.5616 10.0139 10.6109 9.76909 10.711C9.52378 10.8101 9.31351 10.9508 9.13829 11.1315C8.96307 11.3123 8.82843 11.5295 8.73436 11.7844C8.64029 12.0385 8.5928 12.3216 8.5928 12.631C8.5928 12.922 8.63753 13.195 8.7256 13.4472C8.81413 13.7003 8.94463 13.918 9.11616 14.1029C9.28769 14.2878 9.49657 14.4335 9.74373 14.5405C9.99088 14.6465 10.2749 14.701 10.5963 14.701C10.884 14.701 11.1404 14.6525 11.3654 14.5571C11.59 14.4607 11.7791 14.3348 11.9321 14.1781C12.0852 14.0213 12.2014 13.8447 12.2807 13.6496C12.3601 13.455 12.4002 13.2568 12.4002 13.058H11.2045C11.1865 13.1502 11.1621 13.2383 11.1303 13.319Z" fill="#0C6DBB"/>
<path d="M14.3866 13.053H14.3756L13.7282 10.657H12.4998L13.6784 14.6078H15.0396L16.274 10.657H15.023L14.3866 13.053Z" fill="#0C6DBB"/>
<path d="M17.5272 1.61194H4.5V22.3881H20.5V4.49433L17.5272 1.61194ZM19.1167 21.0043H5.88333V2.99526H16.8144V5.19014H19.1162L19.1167 21.0043Z" fill="#0C6DBB"/>
</svg>
