<svg width="20" height="20" viewBox="0 0 20 20" fill="none" xmlns="http://www.w3.org/2000/svg">
<path fill-rule="evenodd" clip-rule="evenodd" d="M10 19.1666C15.0626 19.1666 19.1667 15.0626 19.1667 9.99998C19.1667 4.93737 15.0626 0.833313 10 0.833313C4.9374 0.833313 0.833344 4.93737 0.833344 9.99998C0.833344 15.0626 4.9374 19.1666 10 19.1666Z" fill="#FEFEFE"/>
<path fill-rule="evenodd" clip-rule="evenodd" d="M10 19.1666C15.0626 19.1666 19.1667 15.0626 19.1667 9.99998C19.1667 4.93737 15.0626 0.833313 10 0.833313C4.9374 0.833313 0.833344 4.93737 0.833344 9.99998C0.833344 15.0626 4.9374 19.1666 10 19.1666ZM10 9.16665C9.53977 9.16665 9.16668 9.53974 9.16668 9.99998V13.3333C9.16668 13.7935 9.53977 14.1666 10 14.1666C10.4602 14.1666 10.8333 13.7935 10.8333 13.3333V9.99998C10.8333 9.53974 10.4602 9.16665 10 9.16665ZM10 5.83331C9.53977 5.83331 9.16668 6.20641 9.16668 6.66665C9.16668 7.12688 9.53977 7.49998 10 7.49998C10.4602 7.49998 10.8333 7.12688 10.8333 6.66665C10.8333 6.20641 10.4602 5.83331 10 5.83331Z" fill="#0C6DBB"/>
</svg>
