<svg width="20" height="22" viewBox="0 0 20 22" fill="none" xmlns="http://www.w3.org/2000/svg">
<path d="M18.75 9H0.75M13.75 1V5M5.75 1V5M5.55 21H13.95C15.6302 21 16.4702 21 17.112 20.673C17.6765 20.3854 18.1354 19.9265 18.423 19.362C18.75 18.7202 18.75 17.8802 18.75 16.2V7.8C18.75 6.11984 18.75 5.27976 18.423 4.63803C18.1354 4.07354 17.6765 3.6146 17.112 3.32698C16.4702 3 15.6302 3 13.95 3H5.55C3.86984 3 3.02976 3 2.38803 3.32698C1.82354 3.6146 1.3646 4.07354 1.07698 4.63803C0.75 5.27976 0.75 6.11984 0.75 7.8V16.2C0.75 17.8802 0.75 18.7202 1.07698 19.362C1.3646 19.9265 1.82354 20.3854 2.38803 20.673C3.02976 21 3.86984 21 5.55 21Z" stroke="#AFAFAF" stroke-width="1.4" stroke-linecap="round" stroke-linejoin="round"/>
</svg>
