<svg width="17" height="16" viewBox="0 0 17 16" fill="none" xmlns="http://www.w3.org/2000/svg">
<path fill-rule="evenodd" clip-rule="evenodd" d="M9.58112 2.20527C9.81706 1.96931 10.1329 1.83039 10.4663 1.81595C10.7997 1.80151 11.1263 1.91259 11.3818 2.12727L11.4665 2.20527L14.2951 5.03394C14.5309 5.26985 14.6697 5.58555 14.6841 5.91877C14.6986 6.25199 14.5876 6.57852 14.3731 6.83394L14.2951 6.91927L7.41912 13.7953C7.19777 14.0166 6.9056 14.153 6.59379 14.1806L6.47645 14.1853H2.98779C2.64112 14.1853 2.35512 13.9226 2.31845 13.5853L2.31445 13.5119V10.0233C2.31453 9.71024 2.42474 9.40721 2.62579 9.16727L2.70579 9.08061L9.58112 2.20527ZM8.43045 5.24127L3.64779 10.0239V12.8519H6.47712L11.2598 8.06927L8.43112 5.24061L8.43045 5.24127ZM10.5238 3.14794L9.37312 4.29861L12.2018 7.12727L13.3525 5.97661L10.5238 3.14794Z" fill="#FEFEFE"/>
</svg>
