<svg width="22" height="20" viewBox="0 0 22 20" fill="none" xmlns="http://www.w3.org/2000/svg">
<path d="M2.38613 3.78796C1.62979 2.94264 1.25162 2.51998 1.23736 2.16077C1.22497 1.84873 1.35906 1.54881 1.59987 1.34998C1.87708 1.12109 2.44423 1.12109 3.57852 1.12109H18.4214C19.5557 1.12109 20.1229 1.12109 20.4001 1.34998C20.6409 1.54881 20.775 1.84873 20.7626 2.16077C20.7483 2.51998 20.3701 2.94264 19.6138 3.78796L13.9076 10.1655C13.7568 10.334 13.6814 10.4183 13.6277 10.5142C13.58 10.5992 13.545 10.6908 13.5238 10.7859C13.4999 10.8932 13.4999 11.0063 13.4999 11.2324V16.5795C13.4999 16.775 13.4999 16.8728 13.4684 16.9574C13.4405 17.0321 13.3952 17.099 13.3362 17.1526C13.2694 17.2133 13.1786 17.2496 12.9971 17.3223L9.59714 18.6823C9.22954 18.8293 9.04574 18.9028 8.89826 18.8721C8.76925 18.8453 8.65604 18.7687 8.58324 18.6588C8.49999 18.5333 8.49999 18.3353 8.49999 17.9395V11.2324C8.49999 11.0063 8.49999 10.8932 8.47611 10.7859C8.45493 10.6908 8.41995 10.5992 8.37228 10.5142C8.31852 10.4183 8.24314 10.334 8.09237 10.1655L2.38613 3.78796Z" stroke="#212121" stroke-width="2" stroke-linecap="round" stroke-linejoin="round"/>
</svg>
