<svg width="20" height="20" viewBox="0 0 20 20" fill="none" xmlns="http://www.w3.org/2000/svg">
<path d="M10.25 13C9.69771 13 9.25 13.4477 9.25 14C9.25 14.5523 9.69771 15 10.25 15H10.259C10.8113 15 11.259 14.5523 11.259 14C11.259 13.4477 10.8113 13 10.259 13H10.25Z" fill="#AFAFAF"/>
<path fill-rule="evenodd" clip-rule="evenodd" d="M10.25 0.25C9.62122 0.25 9.08891 0.483066 8.56589 0.833529C8.07124 1.16499 7.51891 1.64833 6.85469 2.22959L0.995211 7.35692C0.485732 7.80273 0.388619 8.45954 0.616921 8.98874C0.841508 9.50934 1.36595 9.88428 2.01238 9.88428C2.01645 9.88428 2.02006 9.88456 2.02323 9.88499L2.02323 13.1392C2.0232 14.4846 2.02318 15.5762 2.14837 16.4362C2.27945 17.3368 2.56096 18.0912 3.20287 18.6841C3.83631 19.2691 4.62798 19.5185 5.57344 19.6359C6.49228 19.75 7.66353 19.75 9.13029 19.75H11.3697C12.8364 19.75 14.0077 19.75 14.9265 19.6359C15.872 19.5185 16.6637 19.2691 17.2971 18.6841C17.939 18.0912 18.2205 17.3368 18.3516 16.4362C18.4768 15.5762 18.4768 14.4846 18.4768 13.1392V9.88499C18.4788 9.88471 18.4811 9.88449 18.4835 9.88438C18.4848 9.88432 18.4862 9.88428 18.4876 9.88428C19.134 9.88428 19.6585 9.50934 19.8831 8.98874C20.1114 8.45953 20.0143 7.80273 19.5048 7.35692L13.6453 2.2296C12.9811 1.64834 12.4287 1.16499 11.9341 0.833529C11.4111 0.483065 10.8788 0.25 10.25 0.25ZM7.80554 3.39075C8.51623 2.76887 8.99617 2.35083 9.40089 2.07964C9.78639 1.82132 10.0275 1.75 10.25 1.75C10.4724 1.75 10.7136 1.82132 11.0991 2.07964C11.5038 2.35083 11.9838 2.76887 12.6944 3.39075L18.4037 8.38659C17.6584 8.4276 16.9768 9.01068 16.9768 9.83705V13.0806C16.9768 14.4987 16.9749 15.4807 16.8673 16.2202C16.7637 16.9315 16.576 17.3082 16.2793 17.5822C15.9743 17.864 15.5414 18.048 14.7417 18.1474C13.9261 18.2486 12.8483 18.25 11.3181 18.25H9.18188C7.65173 18.25 6.57387 18.2486 5.75829 18.1474C4.95859 18.048 4.52572 17.864 4.22064 17.5822C3.92403 17.3082 3.73627 16.9315 3.63272 16.2202C3.52509 15.4807 3.52323 14.4987 3.52323 13.0806V9.83705C3.52323 9.01068 2.8416 8.4276 2.09632 8.38659L7.80554 3.39075Z" fill="#AFAFAF"/>
</svg>
