<svg width="8" height="10" viewBox="0 0 8 10" fill="none" xmlns="http://www.w3.org/2000/svg">
<path d="M6.325 6.82L6.14638 6.64508C5.84958 6.94815 5.53713 7.21041 5.24839 7.42758C5.10837 7.53272 4.87182 7.68831 4.66438 7.82105C4.56189 7.88663 4.46852 7.94535 4.40076 7.98768L4.32057 8.0376L4.29884 8.05104L4.29541 8.05316C4.20516 8.10365 4.10346 8.13018 4 8.13018C3.89549 8.13018 3.79277 8.10311 3.70184 8.05161C3.37334 7.86139 3.0558 7.65283 2.75074 7.42693C2.43237 7.18919 2.1324 6.92776 1.85339 6.64486C1.14912 5.92394 0.5 4.93972 0.5 3.75C0.5 2.82174 0.868749 1.9315 1.52513 1.27513C2.1815 0.618749 3.07174 0.25 4 0.25C4.92826 0.25 5.8185 0.618749 6.47487 1.27513C7.13125 1.9315 7.5 2.82174 7.5 3.75C7.5 4.93996 6.85062 5.92433 6.14619 6.64528L6.325 6.82ZM6.325 6.82C6.0175 7.134 5.695 7.4045 5.3985 7.6275L6.325 6.82ZM6.43281 8.04068C6.69331 8.11689 6.89528 8.20111 7.03549 8.28645L7.3886 8.50139L7.03426 8.71429C6.89004 8.80094 6.6801 8.88833 6.40618 8.96638C6.40612 8.9664 6.40606 8.96642 6.406 8.96643L6.3375 8.726C5.76 8.891 4.9335 9 4 9C3.0665 9 2.24 8.891 1.6625 8.726L6.43281 8.04068ZM6.43281 8.04068C6.37086 8.02106 6.31895 7.97808 6.28814 7.92081C6.25706 7.86307 6.24991 7.79542 6.26825 7.73245C6.28658 7.66949 6.32892 7.61625 6.38614 7.58421C6.44283 7.55246 6.50962 7.54405 6.57237 7.56069C6.89264 7.65436 7.1697 7.76999 7.37365 7.9092C7.57002 8.04424 7.75 8.23939 7.75 8.5C7.75 8.76355 7.56551 8.96068 7.36516 9.09627C7.15681 9.23658 6.87235 9.35318 6.54337 9.44711L6.54311 9.44718C5.88231 9.6366 4.98361 9.75 4 9.75C3.01639 9.75 2.11769 9.6366 1.45689 9.44718L1.45663 9.44711C1.12774 9.35321 0.843349 9.23665 0.635017 9.09639C0.434214 8.96001 0.25 8.76338 0.25 8.5C0.25 8.23943 0.429938 8.04429 0.626274 7.90926C0.830749 7.76967 1.10872 7.65379 1.43006 7.55998C1.49369 7.54144 1.56209 7.54892 1.62021 7.5808C1.67834 7.61268 1.72143 7.66635 1.74 7.73C1.75857 7.79365 1.75108 7.86207 1.7192 7.92021L1.87663 8.00654L1.7192 7.92021C1.68732 7.97834 1.63365 8.02143 1.57 8.04L1.56993 8.04002C1.30823 8.11644 1.10575 8.20085 0.964925 8.2862L0.610627 8.50093L0.965744 8.71429C1.11005 8.801 1.32057 8.88838 1.59382 8.96638L6.43281 8.04068ZM4 2.5C3.66848 2.5 3.35054 2.6317 3.11612 2.86612C2.8817 3.10054 2.75 3.41848 2.75 3.75C2.75 4.08152 2.8817 4.39946 3.11612 4.63388C3.35054 4.8683 3.66848 5 4 5C4.33152 5 4.64946 4.8683 4.88388 4.63388C5.1183 4.39946 5.25 4.08152 5.25 3.75C5.25 3.41848 5.1183 3.10054 4.88388 2.86612C4.64946 2.6317 4.33152 2.5 4 2.5Z" fill="#0C6DBB" stroke="#0C6DBB" stroke-width="0.5"/>
</svg>
