<svg width="15" height="16" viewBox="0 0 15 16" fill="none" xmlns="http://www.w3.org/2000/svg">
<path d="M7.74982 0.75C7.05946 0.75 6.49982 1.30964 6.49982 2C6.49982 2.69036 7.05946 3.25 7.74982 3.25H7.7588C8.44915 3.25 9.0088 2.69036 9.0088 2C9.0088 1.30964 8.44915 0.75 7.7588 0.75H7.74982Z" fill="#AFAFAF"/>
<path d="M6.49591 8C6.49591 7.30964 7.05555 6.75 7.74591 6.75H7.75489C8.44525 6.75 9.00489 7.30964 9.00489 8C9.00489 8.69036 8.44525 9.25 7.75489 9.25H7.74591C7.05555 9.25 6.49591 8.69036 6.49591 8Z" fill="#AFAFAF"/>
<path d="M1.74982 12.75C1.05946 12.75 0.499817 13.3096 0.499817 14C0.499817 14.6904 1.05946 15.25 1.74982 15.25H1.7588C2.44915 15.25 3.0088 14.6904 3.0088 14C3.0088 13.3096 2.44915 12.75 1.7588 12.75H1.74982Z" fill="#AFAFAF"/>
<path d="M6.49591 14C6.49591 13.3096 7.05555 12.75 7.74591 12.75H7.75489C8.44525 12.75 9.00489 13.3096 9.00489 14C9.00489 14.6904 8.44525 15.25 7.75489 15.25H7.74591C7.05555 15.25 6.49591 14.6904 6.49591 14Z" fill="#AFAFAF"/>
<path d="M12.4998 14C12.4998 13.3096 13.0595 12.75 13.7498 12.75H13.7588C14.4492 12.75 15.0088 13.3096 15.0088 14C15.0088 14.6904 14.4492 15.25 13.7588 15.25H13.7498C13.0595 15.25 12.4998 14.6904 12.4998 14Z" fill="#AFAFAF"/>
<path d="M12.4998 8C12.4998 7.30964 13.0595 6.75 13.7498 6.75H13.7588C14.4492 6.75 15.0088 7.30964 15.0088 8C15.0088 8.69036 14.4492 9.25 13.7588 9.25H13.7498C13.0595 9.25 12.4998 8.69036 12.4998 8Z" fill="#AFAFAF"/>
<path d="M13.7498 0.75C13.0595 0.75 12.4998 1.30964 12.4998 2C12.4998 2.69036 13.0595 3.25 13.7498 3.25H13.7588C14.4492 3.25 15.0088 2.69036 15.0088 2C15.0088 1.30964 14.4492 0.75 13.7588 0.75H13.7498Z" fill="#AFAFAF"/>
<path d="M0.499817 8C0.499817 7.30964 1.05946 6.75 1.74982 6.75H1.7588C2.44915 6.75 3.0088 7.30964 3.0088 8C3.0088 8.69036 2.44915 9.25 1.7588 9.25H1.74982C1.05946 9.25 0.499817 8.69036 0.499817 8Z" fill="#AFAFAF"/>
<path d="M1.74982 0.75C1.05946 0.75 0.499817 1.30964 0.499817 2C0.499817 2.69036 1.05946 3.25 1.74982 3.25H1.7588C2.44915 3.25 3.0088 2.69036 3.0088 2C3.0088 1.30964 2.44915 0.75 1.7588 0.75H1.74982Z" fill="#AFAFAF"/>
</svg>
