<svg width="24" height="24" viewBox="0 0 24 24" fill="none" xmlns="http://www.w3.org/2000/svg">
<path fill-rule="evenodd" clip-rule="evenodd" d="M7.20001 4C6.77566 4 6.36869 4.16857 6.06864 4.46863C5.76858 4.76869 5.60001 5.17565 5.60001 5.6V18.4C5.60001 18.8243 5.76858 19.2313 6.06864 19.5314C6.36869 19.8314 6.77566 20 7.20001 20H16C16.6365 20 17.247 19.7471 17.6971 19.2971C18.1472 18.847 18.4 18.2365 18.4 17.6V6.4C18.4 5.76348 18.1472 5.15303 17.6971 4.70294C17.247 4.25286 16.6365 4 16 4H7.20001ZM10.4 5.6H7.20001V18.4H16C16.2122 18.4 16.4157 18.3157 16.5657 18.1657C16.7157 18.0157 16.8 17.8122 16.8 17.6V6.4C16.8 6.18783 16.7157 5.98434 16.5657 5.83431C16.4157 5.68429 16.2122 5.6 16 5.6H15.2V12.7808C15.2 13.5008 14.3296 13.8608 13.8208 13.352L12.8 12.3312L11.7792 13.352C11.2704 13.8608 10.4 13.5008 10.4 12.7808V5.6ZM13.6 5.6H12V10.8688L12.2288 10.64C12.3803 10.4886 12.5858 10.4035 12.8 10.4035C13.0142 10.4035 13.2197 10.4886 13.3712 10.64L13.6 10.8688V5.6Z" fill="#0C6DBB"/>
</svg>
