<svg width="18" height="20" viewBox="0 0 18 20" fill="none" xmlns="http://www.w3.org/2000/svg">
<path fill-rule="evenodd" clip-rule="evenodd" d="M2.00004 7.5C2.00004 3.63401 5.13405 0.5 9.00008 0.5C12.8661 0.5 16.0001 3.63401 16.0001 7.5V11.2639L17.8221 14.9081C18.1878 15.6395 17.656 16.5 16.8383 16.5H12.8739C12.4298 18.2252 10.8637 19.5 8.99988 19.5C7.13608 19.5 5.56994 18.2252 5.1259 16.5H1.16185C0.344126 16.5 -0.187724 15.6395 0.177976 14.9081L2.00004 11.2639V7.5ZM7.26748 16.5C7.61328 17.0978 8.25958 17.5 8.99988 17.5C9.74018 17.5 10.3865 17.0978 10.7323 16.5H7.26748ZM9.00008 2.5C6.23862 2.5 4.00004 4.73858 4.00004 7.5V11.2639C4.00004 11.5744 3.92775 11.8806 3.7889 12.1584L2.61808 14.5H15.382L14.2112 12.1584C14.0724 11.8806 14.0001 11.5744 14.0001 11.2639V7.5C14.0001 4.73858 11.7615 2.5 9.00008 2.5Z" fill="#010101"/>
</svg>
