<svg width="24" height="24" viewBox="0 0 24 24" fill="none" xmlns="http://www.w3.org/2000/svg">
<path d="M8.53261 4.43476H7.27174C5.87848 4.43476 4.75 5.56324 4.75 6.9565V18.9348C4.75 20.328 5.87848 21.4565 7.27174 21.4565H16.7283C18.1215 21.4565 19.25 20.328 19.25 18.9348V6.9565C19.25 5.56324 18.1215 4.43476 16.7283 4.43476H15.4674M9.79348 2.54346H14.2065C14.9029 2.54346 15.4674 3.10797 15.4674 3.80433V5.0652C15.4674 5.76156 14.9029 6.32607 14.2065 6.32607H9.79348C9.09712 6.32607 8.53261 5.76156 8.53261 5.0652V3.80433C8.53261 3.10797 9.09712 2.54346 9.79348 2.54346Z" stroke="#0C6DBB" stroke-width="1.8913" stroke-linecap="round" stroke-linejoin="round"/>
</svg>
