<svg width="20" height="22" viewBox="0 0 20 22" fill="none" xmlns="http://www.w3.org/2000/svg">
<path fill-rule="evenodd" clip-rule="evenodd" d="M10.2498 0.25C7.35026 0.25 4.99976 2.6005 4.99976 5.5C4.99976 8.39949 7.35026 10.75 10.2498 10.75C13.1493 10.75 15.4998 8.39949 15.4998 5.5C15.4998 2.6005 13.1493 0.25 10.2498 0.25ZM6.49976 5.5C6.49976 3.42893 8.17869 1.75 10.2498 1.75C12.3208 1.75 13.9998 3.42893 13.9998 5.5C13.9998 7.57107 12.3208 9.25 10.2498 9.25C8.17869 9.25 6.49976 7.57107 6.49976 5.5Z" fill="#AFAFAF"/>
<path fill-rule="evenodd" clip-rule="evenodd" d="M16.4786 14.0792C16.316 13.9874 16.1724 13.9064 16.0561 13.8372C12.502 11.7209 7.99785 11.7209 4.4438 13.8372C4.32748 13.9064 4.18381 13.9875 4.02114 14.0793C3.30833 14.4814 2.23082 15.0893 1.49265 15.8118C1.03098 16.2637 0.59233 16.8592 0.512584 17.5888C0.427778 18.3646 0.766241 19.0927 1.44526 19.7396C2.61671 20.8556 4.02249 21.75 5.8408 21.75H14.6591C16.4774 21.75 17.8832 20.8556 19.0546 19.7396C19.7336 19.0927 20.0721 18.3646 19.9873 17.5888C19.9075 16.8592 19.4689 16.2637 19.0072 15.8118C18.269 15.0893 17.1914 14.4813 16.4786 14.0792ZM5.21122 15.126C8.29239 13.2913 12.2075 13.2913 15.2886 15.126C15.4565 15.226 15.6405 15.3303 15.8332 15.4397C16.5458 15.8439 17.3779 16.316 17.958 16.8838C18.3181 17.2363 18.4716 17.5271 18.4962 17.7517C18.5157 17.9301 18.4706 18.2242 18.0199 18.6535C16.9841 19.6404 15.9315 20.25 14.6591 20.25H5.8408C4.56835 20.25 3.51578 19.6404 2.47993 18.6535C2.0293 18.2242 1.9842 17.9301 2.0037 17.7517C2.02826 17.5271 2.18177 17.2363 2.5419 16.8838C3.12199 16.316 3.95401 15.844 4.66662 15.4397C4.85928 15.3304 5.04335 15.226 5.21122 15.126Z" fill="#AFAFAF"/>
</svg>
