<svg width="22" height="22" viewBox="0 0 22 22" fill="none" xmlns="http://www.w3.org/2000/svg">
<path fill-rule="evenodd" clip-rule="evenodd" d="M11 22C17.0751 22 22 17.0751 22 11C22 4.92487 17.0751 0 11 0C4.92487 0 0 4.92487 0 11C0 17.0751 4.92487 22 11 22ZM6.05022 10.1213C5.65969 10.5118 5.65969 11.145 6.05022 11.5355L8.87864 14.364C9.26917 14.7545 9.90233 14.7545 10.2929 14.364L15.9497 8.70711C16.3402 8.31658 16.3402 7.68342 15.9497 7.29289C15.5592 6.90237 14.926 6.90237 14.5355 7.29289L9.58575 12.2426L7.46443 10.1213C7.07391 9.7308 6.44074 9.7308 6.05022 10.1213Z" fill="#067647"/>
</svg>
