<svg width="24" height="24" viewBox="0 0 24 24" fill="none" xmlns="http://www.w3.org/2000/svg">
<path d="M15 17.5H14.5V18V19V19.5H15H16C16.1326 19.5 16.2598 19.5527 16.3536 19.6464C16.4473 19.7402 16.5 19.8674 16.5 20C16.5 20.1326 16.4473 20.2598 16.3536 20.3536C16.2598 20.4473 16.1326 20.5 16 20.5H8C7.86739 20.5 7.74021 20.4473 7.64645 20.3536C7.55268 20.2598 7.5 20.1326 7.5 20C7.5 19.8674 7.55268 19.7402 7.64645 19.6464C7.74021 19.5527 7.86739 19.5 8 19.5H9H9.5V19V18V17.5H9H5C4.60218 17.5 4.22064 17.342 3.93934 17.0607C3.65804 16.7794 3.5 16.3978 3.5 16V5C3.5 4.60218 3.65804 4.22064 3.93934 3.93934C4.22064 3.65804 4.60218 3.5 5 3.5H19C19.3978 3.5 19.7794 3.65804 20.0607 3.93934C20.342 4.22064 20.5 4.60218 20.5 5V16C20.5 16.3978 20.342 16.7794 20.0607 17.0607C19.7794 17.342 19.3978 17.5 19 17.5H15ZM13.5 18V17.5H13H11H10.5V18V19V19.5H11H13H13.5V19V18ZM19.5 5V4.5H19H5H4.5V5V16V16.5H5H19H19.5V16V5Z" fill="#010101" stroke="#0C6DBB"/>
</svg>
