<svg width="24" height="24" viewBox="0 0 24 24" fill="none" xmlns="http://www.w3.org/2000/svg">
<path d="M19 4L19.0001 4C19.3786 3.99988 19.7431 4.1428 20.0206 4.40012C20.2957 4.65524 20.4651 5.00411 20.4956 5.37783L20.5 5.50836V15.5V15.5002C20.5001 15.8786 20.3572 16.2431 20.0999 16.5206C19.8447 16.7957 19.4959 16.9651 19.1222 16.9957L18.9917 17H4.99999H4.99983C4.6214 17.0001 4.25691 16.8572 3.97942 16.5999C3.70431 16.3448 3.53488 15.9959 3.50434 15.6222L3.49999 15.4917L3.49999 5.5L3.49999 5.49984C3.49987 5.12141 3.6428 4.75692 3.90011 4.47943C4.15523 4.20431 4.50411 4.03488 4.87783 4.00435L5.00832 4H19ZM19.5 5.5V5H19H4.99999H4.49999V5.5V15.5V16H4.99999H19H19.5V15.5V5.5ZM20.9994 19C21.1269 19.0001 21.2495 19.0489 21.3421 19.1364C21.4348 19.2239 21.4906 19.3435 21.498 19.4707C21.5055 19.5979 21.4641 19.7232 21.3823 19.8209C21.3031 19.9155 21.1918 19.9774 21.07 19.9949L20.985 20H3.00054C2.87311 19.9999 2.75053 19.9511 2.65786 19.8636C2.56519 19.7761 2.50943 19.6565 2.50196 19.5293C2.49449 19.4021 2.53588 19.2768 2.61768 19.1791C2.69687 19.0845 2.80815 19.0226 2.93 19.0051L3.01493 19H20.9994Z" fill="#010101" stroke="#0C6DBB"/>
</svg>
