<svg width="12" height="12" viewBox="0 0 12 12" fill="none" xmlns="http://www.w3.org/2000/svg">
<path d="M8.325 7.82L8.14638 7.64508C7.84958 7.94815 7.53713 8.21041 7.24839 8.42758C7.10837 8.53272 6.87182 8.68831 6.66438 8.82105C6.56189 8.88663 6.46852 8.94535 6.40076 8.98768L6.32057 9.0376L6.29884 9.05104L6.29541 9.05316C6.20516 9.10365 6.10346 9.13018 6 9.13018C5.89549 9.13018 5.79277 9.10311 5.70184 9.05161C5.37334 8.86139 5.0558 8.65283 4.75074 8.42693C4.43237 8.18919 4.1324 7.92776 3.85339 7.64486C3.14912 6.92394 2.5 5.93972 2.5 4.75C2.5 3.82174 2.86875 2.9315 3.52513 2.27513C4.1815 1.61875 5.07174 1.25 6 1.25C6.92826 1.25 7.8185 1.61875 8.47487 2.27513C9.13125 2.9315 9.5 3.82174 9.5 4.75C9.5 5.93996 8.85062 6.92433 8.14619 7.64528L8.325 7.82ZM8.325 7.82C8.0175 8.134 7.695 8.4045 7.3985 8.6275L8.325 7.82ZM8.43281 9.04068C8.69331 9.11689 8.89528 9.20111 9.03549 9.28645L9.3886 9.50139L9.03426 9.71429C8.89004 9.80094 8.6801 9.88833 8.40618 9.96638C8.40612 9.9664 8.40606 9.96642 8.406 9.96643L8.3375 9.726C7.76 9.891 6.9335 10 6 10C5.0665 10 4.24 9.891 3.6625 9.726L8.43281 9.04068ZM8.43281 9.04068C8.37086 9.02106 8.31895 8.97808 8.28814 8.92081C8.25706 8.86307 8.24991 8.79542 8.26825 8.73245C8.28658 8.66949 8.32892 8.61625 8.38614 8.58421C8.44283 8.55246 8.50962 8.54405 8.57237 8.56069C8.89264 8.65436 9.1697 8.76999 9.37365 8.9092C9.57002 9.04424 9.75 9.23939 9.75 9.5C9.75 9.76355 9.56551 9.96068 9.36516 10.0963C9.15681 10.2366 8.87235 10.3532 8.54337 10.4471L8.54311 10.4472C7.88231 10.6366 6.98361 10.75 6 10.75C5.01639 10.75 4.11769 10.6366 3.45689 10.4472L3.45663 10.4471C3.12774 10.3532 2.84335 10.2366 2.63502 10.0964C2.43421 9.96001 2.25 9.76338 2.25 9.5C2.25 9.23943 2.42994 9.04429 2.62627 8.90926C2.83075 8.76967 3.10872 8.65379 3.43006 8.55998C3.49369 8.54144 3.56209 8.54892 3.62021 8.5808C3.67834 8.61268 3.72143 8.66635 3.74 8.73C3.75857 8.79365 3.75108 8.86207 3.7192 8.92021L3.87663 9.00654L3.7192 8.92021C3.68732 8.97834 3.63365 9.02143 3.57 9.04L3.56993 9.04002C3.30823 9.11644 3.10575 9.20085 2.96493 9.2862L2.61063 9.50093L2.96574 9.71429C3.11005 9.801 3.32057 9.88838 3.59382 9.96638L8.43281 9.04068ZM6 3.5C5.66848 3.5 5.35054 3.6317 5.11612 3.86612C4.8817 4.10054 4.75 4.41848 4.75 4.75C4.75 5.08152 4.8817 5.39946 5.11612 5.63388C5.35054 5.8683 5.66848 6 6 6C6.33152 6 6.64946 5.8683 6.88388 5.63388C7.1183 5.39946 7.25 5.08152 7.25 4.75C7.25 4.41848 7.1183 4.10054 6.88388 3.86612C6.64946 3.6317 6.33152 3.5 6 3.5Z" fill="#0C6DBB" stroke="#0C6DBB" stroke-width="0.5"/>
</svg>
