<svg width="30" height="30" viewBox="0 0 30 30" fill="none" xmlns="http://www.w3.org/2000/svg">
<path d="M19.5699 23.512C19.4788 23.3505 19.3116 23.2503 19.1334 23.2503C19.0524 23.2503 18.9717 23.2714 18.8995 23.312C17.7576 23.9611 16.4997 24.2902 15.1613 24.2902C13.823 24.2902 12.7098 23.9977 11.4223 23.3114C11.3531 23.2714 11.2736 23.25 11.1926 23.25C11.0087 23.25 10.8418 23.3583 10.7565 23.5328C10.6949 23.6519 10.6818 23.7882 10.7199 23.917C10.7586 24.0477 10.8457 24.1551 10.9654 24.2197C12.3857 24.9755 13.6798 25.3125 15.1613 25.3125C16.6428 25.3125 18.0719 24.9418 19.374 24.2109C19.6137 24.0767 19.7027 23.7649 19.5723 23.5161L19.5699 23.512Z" fill="#0C6DBB"/>
<path d="M21.3984 19.5605C21.3109 19.5005 21.2109 19.4687 21.1091 19.4687C20.9375 19.4687 20.7871 19.5524 20.7055 19.6929C20.086 20.5838 19.3058 21.2829 18.3855 21.7706C17.4247 22.2825 16.311 22.5534 15.1652 22.5534C14.025 22.5534 12.9132 22.285 11.9508 21.7777C11.0299 21.2931 10.2507 20.5969 9.63588 19.7105C9.54182 19.5714 9.38766 19.4883 9.22353 19.4883C9.11857 19.4883 9.01673 19.5213 8.92922 19.5842C8.81741 19.6644 8.74328 19.7853 8.72024 19.9244C8.69781 20.0614 8.72989 20.2038 8.80713 20.3131C9.51224 21.3326 10.4139 22.1372 11.4868 22.7042C12.5855 23.2859 13.8544 23.5937 15.1559 23.5937C16.4633 23.5937 17.7387 23.2836 18.843 22.6971C19.9135 22.1314 20.8151 21.3217 21.5236 20.29C21.6868 20.0482 21.6332 19.7285 21.3984 19.5605Z" fill="#0C6DBB"/>
<path d="M7.76618 15.1649C7.77996 15.3383 7.82851 15.5383 7.89084 15.7004H4.21102C4.17155 15.7004 3.9877 15.7795 3.94354 15.8126C3.66072 16.0246 3.69611 16.4918 3.99585 16.6688C4.01746 16.6814 4.16842 16.7378 4.1797 16.7378H9.2304C9.40736 18.1393 10.0955 19.4309 11.1719 20.3795C12.2666 21.344 13.6779 21.875 15.1456 21.875C17.4786 21.875 19.6081 20.5238 20.5715 18.4318C20.8061 17.9192 20.9586 17.3493 21.0253 16.7375H25.8217C25.9257 16.7375 26.1246 16.5865 26.1822 16.4947C26.2605 16.3699 26.2661 16.1695 26.2238 16.0298C26.1778 15.8765 25.9435 15.7004 25.7904 15.7004H22.1102C22.1798 15.5215 22.2239 15.3276 22.2368 15.1344C22.3238 13.8496 22.1992 12.4216 21.7576 11.2185C21.4134 10.2806 20.8424 9.55991 20.6473 8.54227C20.5727 8.15324 20.589 7.79047 20.5414 7.41992C20.5117 7.18942 20.3112 6.99296 20.0857 6.98129C19.8583 6.96962 19.4248 7.09962 19.1517 7.11032C18.0906 7.15149 17.3605 6.73263 16.3793 6.54103C11.9935 5.68419 7.96882 9.01559 7.7643 13.6078C7.74394 14.0642 7.73079 14.7162 7.76618 15.1649ZM19.6557 17.972C18.8589 19.699 17.0887 20.8149 15.1459 20.8149C12.7117 20.8149 10.6267 19.0681 10.259 16.7375H11.046C11.217 17.6611 11.7116 18.5057 12.442 19.1184C13.189 19.7451 14.1392 20.0903 15.1177 20.0903C16.0961 20.0903 17.0464 19.7451 17.7934 19.1184C18.5241 18.5053 19.0186 17.6611 19.1893 16.7375H20.0061C19.9454 17.1862 19.8279 17.6012 19.6557 17.972ZM15.1387 18.306C16.1378 18.306 17.0207 17.6761 17.3405 16.7375H18.1467C17.8025 18.0764 16.5456 19.0377 15.1177 19.0377C13.6898 19.0377 12.4329 18.0764 12.0887 16.7375H12.9372C13.2566 17.6761 14.1395 18.306 15.1387 18.306ZM14.076 16.7375H16.2014C15.9577 17.0637 15.5646 17.2604 15.1387 17.2604C14.7127 17.2604 14.3196 17.0637 14.076 16.7375ZM10.9919 15.7001V14.4033C11.8967 14.3712 12.8332 14.4876 13.723 14.2964C14.6306 14.1012 15.4797 13.5669 16.1171 12.8819C16.1666 12.8728 16.4291 13.1821 16.4895 13.2353C17.1973 13.8577 18.0765 14.2763 19.0098 14.3709V15.7001H10.9919ZM21.0122 15.5847C20.9893 15.6025 20.822 15.7001 20.8104 15.7001H19.9805V14.4033H20.7478C20.7688 14.4033 20.9483 14.4957 20.9808 14.5188C21.3357 14.771 21.3554 15.3159 21.0122 15.5847ZM13.7728 7.5402C15.2987 7.22767 16.0855 7.55284 17.493 7.91723C18.1842 8.09618 18.894 8.1607 19.6049 8.0816C19.6416 8.61943 19.769 9.15143 19.9488 9.65458C20.1565 10.2359 20.4916 10.7215 20.7281 11.2794C21.0194 11.968 21.2107 12.7432 21.2336 13.4953C20.631 13.3111 19.9905 13.436 19.3703 13.3977C18.5234 13.3455 17.7357 13.0161 17.099 12.442C16.834 12.2031 16.4676 11.6357 16.1127 11.6448C15.7923 11.6529 15.4312 12.1888 15.1891 12.4096C13.4843 13.9657 11.2891 13.2262 9.22101 13.3967C9.06441 13.4097 8.92127 13.4697 8.76812 13.495C8.89622 10.598 11.0382 8.1004 13.7728 7.5402ZM9.02056 14.5191C9.05313 14.4961 9.2326 14.4037 9.25358 14.4037H10.0209V15.7004H9.19094C9.15116 15.7004 8.9172 15.5225 8.87962 15.4716C8.65286 15.1662 8.71425 14.7366 9.02056 14.5191Z" fill="#0C6DBB"/>
<path d="M8.5399 27.8269C8.5187 27.8085 8.39928 27.7282 8.39062 27.7282H4.67371V23.6956C4.67371 23.6837 4.62206 23.5251 4.61012 23.5024C4.41158 23.1172 3.83867 23.1827 3.75 23.6321L3.77657 28.4376C3.83628 28.6259 4.03541 28.7405 4.20976 28.75L8.29837 28.7457C8.70708 28.6924 8.86293 28.1068 8.5399 27.8269Z" fill="#0C6DBB"/>
<path d="M4.5365 6.60324C4.56905 6.56489 4.67386 6.36355 4.67386 6.32553V2.27555H8.33168C8.37258 2.27555 8.5613 2.15025 8.59743 2.10694C8.82645 1.83287 8.69955 1.32968 8.35944 1.25264L4.12056 1.25C3.9623 1.27116 3.83361 1.4001 3.7709 1.55714L3.75 6.3566C3.82256 6.7411 4.29733 6.88294 4.5365 6.60324Z" fill="#0C6DBB"/>
<path d="M25.3426 23.4997C25.3304 23.5226 25.2756 23.68 25.2756 23.6917V27.6994H21.9529C21.9438 27.6994 21.8146 27.7796 21.7948 27.7969C21.4591 28.0907 21.631 28.6341 22.0549 28.7057C23.2486 28.637 24.5884 28.8242 25.765 28.7149C25.9722 28.6956 26.1599 28.5919 26.2308 28.3809L26.25 23.6286C26.1521 23.1886 25.5537 23.114 25.3426 23.4997Z" fill="#0C6DBB"/>
<path d="M21.8585 2.20575C21.8806 2.21865 22.0322 2.2762 22.0436 2.2762H25.2747V6.3274C25.2747 6.37271 25.3942 6.58172 25.4354 6.62174C25.6968 6.87539 26.1765 6.73484 26.25 6.35816L26.2371 1.58038C26.1743 1.41304 26.035 1.27216 25.8585 1.25L21.9824 1.25298C21.5585 1.35583 21.4869 1.98418 21.8585 2.20575Z" fill="#0C6DBB"/>
<path d="M7.32047 5.01382C7.84788 4.93361 7.8915 4.08716 7.22437 4.01309C7.05841 3.99466 6.63859 3.99433 6.47787 4.02086C5.92259 4.11304 5.92718 4.95107 6.5028 5.01576C6.67335 5.03484 7.15648 5.03905 7.32047 5.01382Z" fill="#0C6DBB"/>
<path d="M22.7152 4.02086C22.1218 4.11888 22.1592 4.93504 22.6768 5.01397C22.8425 5.0392 23.2883 5.0337 23.4631 5.01721C24.0945 4.95866 24.0873 4.082 23.4618 4.0131C23.2955 3.99466 22.8766 3.99433 22.7152 4.02086Z" fill="#0C6DBB"/>
<path d="M6.47708 24.9888C5.90796 25.083 5.94314 25.919 6.50141 25.9851C6.66613 26.0045 7.1626 26.0064 7.32206 25.9822C7.7646 25.9148 7.86751 25.273 7.48349 25.0506C7.31943 24.9554 6.67632 24.9558 6.47708 24.9888Z" fill="#0C6DBB"/>
<path d="M22.6799 24.9878C22.1679 25.0802 22.1449 25.8507 22.6221 25.974C22.7823 26.0154 23.5025 26.0076 23.6493 25.949C23.6765 25.9382 23.7724 25.8702 23.7935 25.8477C24.0361 25.5916 23.9557 25.147 23.6174 25.0197C23.4624 24.9614 22.8526 24.9566 22.6799 24.9878Z" fill="#0C6DBB"/>
</svg>
