<svg width="60" height="48" viewBox="0 0 60 48" fill="none" xmlns="http://www.w3.org/2000/svg">
<rect x="0.5" y="0.5" width="59" height="47" rx="3.5" stroke="#0C6DBB"/>
<path d="M34.5699 32.512C34.4788 32.3505 34.3116 32.2503 34.1334 32.2503C34.0524 32.2503 33.9717 32.2714 33.8995 32.312C32.7576 32.9611 31.4997 33.2902 30.1613 33.2902C28.823 33.2902 27.7098 32.9977 26.4223 32.3114C26.3531 32.2714 26.2736 32.25 26.1926 32.25C26.0087 32.25 25.8418 32.3583 25.7565 32.5328C25.6949 32.6519 25.6818 32.7882 25.7199 32.917C25.7586 33.0477 25.8457 33.1551 25.9654 33.2197C27.3857 33.9755 28.6798 34.3125 30.1613 34.3125C31.6428 34.3125 33.0719 33.9418 34.374 33.2109C34.6137 33.0767 34.7027 32.7649 34.5723 32.5161L34.5699 32.512Z" fill="#0C6DBB"/>
<path d="M36.3984 28.5605C36.3109 28.5005 36.2109 28.4687 36.1091 28.4687C35.9375 28.4687 35.7871 28.5524 35.7055 28.6929C35.086 29.5838 34.3058 30.2829 33.3855 30.7706C32.4247 31.2825 31.311 31.5534 30.1652 31.5534C29.025 31.5534 27.9132 31.285 26.9508 30.7777C26.0299 30.2931 25.2507 29.5969 24.6359 28.7105C24.5418 28.5714 24.3877 28.4883 24.2235 28.4883C24.1186 28.4883 24.0167 28.5213 23.9292 28.5842C23.8174 28.6644 23.7433 28.7853 23.7202 28.9244C23.6978 29.0614 23.7299 29.2038 23.8071 29.3131C24.5122 30.3326 25.4139 31.1372 26.4868 31.7042C27.5855 32.2859 28.8544 32.5937 30.1559 32.5937C31.4633 32.5937 32.7387 32.2836 33.843 31.6971C34.9135 31.1314 35.8151 30.3217 36.5236 29.29C36.6868 29.0482 36.6332 28.7285 36.3984 28.5605Z" fill="#0C6DBB"/>
<path d="M22.7662 24.1649C22.78 24.3383 22.8285 24.5383 22.8908 24.7004H19.211C19.1716 24.7004 18.9877 24.7795 18.9435 24.8126C18.6607 25.0246 18.6961 25.4918 18.9958 25.6688C19.0175 25.6814 19.1684 25.7378 19.1797 25.7378H24.2304C24.4074 27.1393 25.0955 28.4309 26.1719 29.3795C27.2666 30.344 28.6779 30.875 30.1456 30.875C32.4786 30.875 34.6081 29.5238 35.5715 27.4318C35.8061 26.9192 35.9586 26.3493 36.0253 25.7375H40.8217C40.9257 25.7375 41.1246 25.5865 41.1822 25.4947C41.2605 25.3699 41.2661 25.1695 41.2238 25.0298C41.1778 24.8765 40.9435 24.7004 40.7904 24.7004H37.1102C37.1798 24.5215 37.2239 24.3276 37.2368 24.1344C37.3238 22.8496 37.1992 21.4216 36.7576 20.2185C36.4134 19.2806 35.8424 18.5599 35.6473 17.5423C35.5727 17.1532 35.589 16.7905 35.5414 16.4199C35.5117 16.1894 35.3112 15.993 35.0857 15.9813C34.8583 15.9696 34.4248 16.0996 34.1517 16.1103C33.0906 16.1515 32.3605 15.7326 31.3793 15.541C26.9935 14.6842 22.9688 18.0156 22.7643 22.6078C22.7439 23.0642 22.7308 23.7162 22.7662 24.1649ZM34.6557 26.972C33.8589 28.699 32.0887 29.8149 30.1459 29.8149C27.7117 29.8149 25.6267 28.0681 25.259 25.7375H26.046C26.217 26.6611 26.7116 27.5057 27.442 28.1184C28.189 28.7451 29.1392 29.0903 30.1177 29.0903C31.0961 29.0903 32.0464 28.7451 32.7934 28.1184C33.5241 27.5053 34.0186 26.6611 34.1893 25.7375H35.0061C34.9454 26.1862 34.8279 26.6012 34.6557 26.972ZM30.1387 27.306C31.1378 27.306 32.0207 26.6761 32.3405 25.7375H33.1467C32.8025 27.0764 31.5456 28.0377 30.1177 28.0377C28.6898 28.0377 27.4329 27.0764 27.0887 25.7375H27.9372C28.2566 26.6761 29.1395 27.306 30.1387 27.306ZM29.076 25.7375H31.2014C30.9577 26.0637 30.5646 26.2604 30.1387 26.2604C29.7127 26.2604 29.3196 26.0637 29.076 25.7375ZM25.9919 24.7001V23.4033C26.8967 23.3712 27.8332 23.4876 28.723 23.2964C29.6306 23.1012 30.4797 22.5669 31.1171 21.8819C31.1666 21.8728 31.4291 22.1821 31.4895 22.2353C32.1973 22.8577 33.0765 23.2763 34.0098 23.3709V24.7001H25.9919ZM36.0122 24.5847C35.9893 24.6025 35.822 24.7001 35.8104 24.7001H34.9805V23.4033H35.7478C35.7688 23.4033 35.9483 23.4957 35.9808 23.5188C36.3357 23.771 36.3554 24.3159 36.0122 24.5847ZM28.7728 16.5402C30.2987 16.2277 31.0855 16.5528 32.493 16.9172C33.1842 17.0962 33.894 17.1607 34.6049 17.0816C34.6416 17.6194 34.769 18.1514 34.9488 18.6546C35.1565 19.2359 35.4916 19.7215 35.7281 20.2794C36.0194 20.968 36.2107 21.7432 36.2336 22.4953C35.631 22.3111 34.9905 22.436 34.3703 22.3977C33.5234 22.3455 32.7357 22.0161 32.099 21.442C31.834 21.2031 31.4676 20.6357 31.1127 20.6448C30.7923 20.6529 30.4312 21.1888 30.1891 21.4096C28.4843 22.9657 26.2891 22.2262 24.221 22.3967C24.0644 22.4097 23.9213 22.4697 23.7681 22.495C23.8962 19.598 26.0382 17.1004 28.7728 16.5402ZM24.0206 23.5191C24.0531 23.4961 24.2326 23.4037 24.2536 23.4037H25.0209V24.7004H24.1909C24.1512 24.7004 23.9172 24.5225 23.8796 24.4716C23.6529 24.1662 23.7142 23.7366 24.0206 23.5191Z" fill="#0C6DBB"/>
<path d="M23.5399 36.8269C23.5187 36.8085 23.3993 36.7282 23.3906 36.7282H19.6737V32.6956C19.6737 32.6837 19.6221 32.5251 19.6101 32.5024C19.4116 32.1172 18.8387 32.1827 18.75 32.6321L18.7766 37.4376C18.8363 37.6259 19.0354 37.7405 19.2098 37.75L23.2984 37.7457C23.7071 37.6924 23.8629 37.1068 23.5399 36.8269Z" fill="#0C6DBB"/>
<path d="M19.5365 15.6032C19.5691 15.5649 19.6739 15.3635 19.6739 15.3255V11.2756H23.3317C23.3726 11.2756 23.5613 11.1503 23.5974 11.1069C23.8265 10.8329 23.6995 10.3297 23.3594 10.2526L19.1206 10.25C18.9623 10.2712 18.8336 10.4001 18.7709 10.5571L18.75 15.3566C18.8226 15.7411 19.2973 15.8829 19.5365 15.6032Z" fill="#0C6DBB"/>
<path d="M40.3426 32.4997C40.3304 32.5226 40.2756 32.68 40.2756 32.6917V36.6994H36.9529C36.9438 36.6994 36.8146 36.7796 36.7948 36.7969C36.4591 37.0907 36.631 37.6341 37.0549 37.7057C38.2486 37.637 39.5884 37.8242 40.765 37.7149C40.9722 37.6956 41.1599 37.5919 41.2308 37.3809L41.25 32.6286C41.1521 32.1886 40.5537 32.114 40.3426 32.4997Z" fill="#0C6DBB"/>
<path d="M36.8585 11.2058C36.8806 11.2187 37.0322 11.2762 37.0436 11.2762H40.2747V15.3274C40.2747 15.3727 40.3942 15.5817 40.4354 15.6217C40.6968 15.8754 41.1765 15.7348 41.25 15.3582L41.2371 10.5804C41.1743 10.413 41.035 10.2722 40.8585 10.25L36.9824 10.253C36.5585 10.3558 36.4869 10.9842 36.8585 11.2058Z" fill="#0C6DBB"/>
<path d="M22.3205 14.0138C22.8479 13.9336 22.8915 13.0872 22.2244 13.0131C22.0584 12.9947 21.6386 12.9943 21.4779 13.0209C20.9226 13.113 20.9272 13.9511 21.5028 14.0158C21.6734 14.0348 22.1565 14.039 22.3205 14.0138Z" fill="#0C6DBB"/>
<path d="M37.7152 13.0209C37.1218 13.1189 37.1592 13.935 37.6768 14.014C37.8425 14.0392 38.2883 14.0337 38.4631 14.0172C39.0945 13.9587 39.0873 13.082 38.4618 13.0131C38.2955 12.9947 37.8766 12.9943 37.7152 13.0209Z" fill="#0C6DBB"/>
<path d="M21.4771 33.9888C20.908 34.083 20.9431 34.919 21.5014 34.9851C21.6661 35.0045 22.1626 35.0064 22.3221 34.9822C22.7646 34.9148 22.8675 34.273 22.4835 34.0506C22.3194 33.9554 21.6763 33.9558 21.4771 33.9888Z" fill="#0C6DBB"/>
<path d="M37.6799 33.9878C37.1679 34.0802 37.1449 34.8507 37.6221 34.974C37.7823 35.0154 38.5025 35.0076 38.6493 34.949C38.6765 34.9382 38.7724 34.8702 38.7935 34.8477C39.0361 34.5916 38.9557 34.147 38.6174 34.0197C38.4624 33.9614 37.8526 33.9566 37.6799 33.9878Z" fill="#0C6DBB"/>
</svg>
