<svg width="361" height="280" viewBox="0 0 361 280" fill="none" xmlns="http://www.w3.org/2000/svg">
<path d="M54.8817 276.167H321.722C327.931 272.104 333.297 266.968 337.437 260.836C349.319 243.282 348.322 216.759 332.224 202.884C322.182 194.222 308.461 191.615 295.889 187.476C283.317 183.336 270.056 176.207 265.993 163.559C262.39 152.214 267.296 140.026 266.76 128.144C265.917 107.907 248.286 90.8123 228.508 86.7495C208.654 82.61 187.804 89.6624 171.476 101.697C155.148 113.732 142.807 130.214 131.615 147.155C124.639 157.733 116.283 169.692 103.712 171.148C87.3074 173.064 74.2758 156.123 57.8713 154.437C41.6202 152.827 27.2855 167.392 23.6826 183.336C20.0798 199.281 24.4492 215.839 29.5085 231.323C34.7978 247.728 42.3101 265.205 54.8817 276.091V276.167Z" fill="#0C6DBB" fill-opacity="0.1"/>
<path d="M291.29 237.916C274.809 235.386 256.641 234.849 243.993 223.888C235.407 216.452 230.731 204.647 232.035 193.302C232.878 185.559 236.251 178.354 237.86 170.765C239.47 163.176 238.78 154.207 232.954 148.994C227.665 144.242 219.693 144.012 212.87 146.005C196.006 150.911 184.891 166.472 174.236 180.423C163.58 194.375 149.936 208.786 132.381 209.4C118.89 209.859 106.625 202.041 93.4399 199.588C76.1156 196.291 57.2581 203.114 45.9896 216.682C39.3205 224.731 35.4111 235.079 34.7978 245.505C39.6272 257.156 45.9896 268.348 54.9584 276.09H311.68C317.43 269.575 320.419 259.993 316.893 252.097C312.677 242.822 301.485 239.372 291.366 237.839L291.29 237.916Z" fill="#0C6DBB" fill-opacity="0.15"/>
<path d="M180.207 276.167H85.536C76.0306 276.167 67.6751 268.425 66.8318 258.92L50.6574 74.4845C49.8141 64.9791 56.8665 57.2368 66.3719 57.2368H161.042C170.548 57.2368 178.903 64.9791 179.747 74.4845L195.921 258.92C196.764 268.425 189.712 276.167 180.207 276.167Z" fill="#0C6DBB"/>
<path d="M187.259 276.167H92.5883C83.083 276.167 74.7274 268.425 73.8842 258.92L57.7097 74.4845C56.8665 64.9791 63.9189 57.2368 73.4243 57.2368H168.095C177.6 57.2368 185.956 64.9791 186.799 74.4845L202.973 258.92C203.817 268.425 196.764 276.167 187.259 276.167Z" fill="#0B62A8"/>
<path d="M168.708 64.2892H153.3L153.683 68.352C153.99 71.4949 151.614 74.0245 148.547 74.0245H96.0379C92.895 74.0245 90.1353 71.4949 89.9054 68.352L89.5221 64.2892H74.1142C68.5183 64.2892 64.3022 68.8886 64.8388 74.4845L81.0132 258.92C81.4732 264.515 86.4558 269.115 92.0517 269.115H186.722C192.318 269.115 196.534 264.515 195.998 258.92L179.823 74.4845C179.363 68.8886 174.381 64.2892 168.785 64.2892H168.708Z" fill="white"/>
<path d="M166.562 100.011H81.9331C78.1769 100.011 74.8807 96.9448 74.5741 93.1886L74.3441 90.8889C74.0375 87.1327 76.7971 84.0665 80.5533 84.0665H165.182C168.938 84.0665 172.234 87.1327 172.541 90.8889L172.771 93.1886C173.077 96.9448 170.318 100.011 166.562 100.011Z" fill="#9EC5E4"/>
<path d="M165.182 253.324H110.143C106.386 253.324 103.09 250.257 102.784 246.501L102.554 244.202C102.247 240.445 105.007 237.379 108.763 237.379H163.802C167.558 237.379 170.854 240.445 171.161 244.202L171.391 246.501C171.698 250.257 168.938 253.324 165.182 253.324Z" fill="#8AE2E7"/>
<path d="M123.787 64.2892C123.941 65.5924 122.944 66.6656 121.564 66.6656C120.185 66.6656 119.111 65.5924 118.958 64.2892C118.805 62.9861 119.801 61.9129 121.181 61.9129C122.561 61.9129 123.634 62.9861 123.787 64.2892Z" fill="#0C6DBB"/>
<path d="M85.9959 125.997H80.3233C78.7136 125.997 77.2571 124.694 77.1038 123.085L76.6438 117.412C76.4905 115.802 77.717 114.499 79.3268 114.499H84.9994C86.6092 114.499 88.0656 115.802 88.2189 117.412L88.6789 123.085C88.8322 124.694 87.6057 125.997 85.9959 125.997Z" fill="#0C6DBB" fill-opacity="0.13"/>
<path d="M100.407 125.997H94.7347C93.1249 125.997 91.6685 124.694 91.5152 123.085L91.0552 117.412C90.9019 115.802 92.1284 114.499 93.7382 114.499H99.4108C101.021 114.499 102.477 115.802 102.63 117.412L103.09 123.085C103.244 124.694 102.017 125.997 100.407 125.997Z" fill="#0C6DBB" fill-opacity="0.13"/>
<path d="M114.895 125.997H109.223C107.613 125.997 106.157 124.694 106.003 123.085L105.543 117.412C105.39 115.802 106.616 114.499 108.226 114.499H113.899C115.509 114.499 116.965 115.802 117.118 117.412L117.578 123.085C117.732 124.694 116.505 125.997 114.895 125.997Z" fill="#0C6DBB" fill-opacity="0.13"/>
<path d="M129.383 125.997H123.711C122.101 125.997 120.645 124.694 120.491 123.085L120.031 117.412C119.878 115.802 121.105 114.499 122.714 114.499H128.387C129.997 114.499 131.453 115.802 131.606 117.412L132.066 123.085C132.22 124.694 130.993 125.997 129.383 125.997Z" fill="#9EC5E4"/>
<path d="M143.795 125.997H138.122C136.512 125.997 135.056 124.694 134.903 123.085L134.443 117.412C134.289 115.802 135.516 114.499 137.126 114.499H142.798C144.408 114.499 145.864 115.802 146.018 117.412L146.478 123.085C146.631 124.694 145.405 125.997 143.795 125.997Z" fill="#9EC5E4"/>
<path d="M158.283 125.997H152.61C151 125.997 149.544 124.694 149.391 123.085L148.931 117.412C148.777 115.802 150.004 114.499 151.614 114.499H157.286C158.896 114.499 160.353 115.802 160.506 117.412L160.966 123.085C161.119 124.694 159.893 125.997 158.283 125.997Z" fill="#9EC5E4"/>
<path d="M172.694 125.997H167.022C165.412 125.997 163.955 124.694 163.802 123.085L163.342 117.412C163.189 115.802 164.415 114.499 166.025 114.499H171.698C173.307 114.499 174.764 115.802 174.917 117.412L175.377 123.085C175.53 124.694 174.304 125.997 172.694 125.997Z" fill="#9EC5E4"/>
<path d="M87.6057 144.778H81.9331C80.3234 144.778 78.8669 143.475 78.7136 141.865L78.2536 136.193C78.1003 134.583 79.3268 133.28 80.9366 133.28H86.6092C88.219 133.28 89.6754 134.583 89.8287 136.193L90.2887 141.865C90.442 143.475 89.2155 144.778 87.6057 144.778Z" fill="#9EC5E4"/>
<path d="M102.094 144.778H96.4212C94.8114 144.778 93.3549 143.475 93.2016 141.865L92.7417 136.193C92.5884 134.583 93.8149 133.28 95.4247 133.28H101.097C102.707 133.28 104.163 134.583 104.317 136.193L104.777 141.865C104.93 143.475 103.704 144.778 102.094 144.778Z" fill="#9EC5E4"/>
<path d="M116.505 144.778H110.833C109.223 144.778 107.766 143.475 107.613 141.865L107.153 136.193C107 134.583 108.226 133.28 109.836 133.28H115.509C117.118 133.28 118.575 134.583 118.728 136.193L119.188 141.865C119.341 143.475 118.115 144.778 116.505 144.778Z" fill="#9EC5E4"/>
<path d="M130.993 144.778H125.321C123.711 144.778 122.254 143.475 122.101 141.865L121.641 136.193C121.488 134.583 122.714 133.28 124.324 133.28H129.997C131.606 133.28 133.063 134.583 133.216 136.193L133.676 141.865C133.829 143.475 132.603 144.778 130.993 144.778Z" fill="#9EC5E4"/>
<path d="M145.481 144.778H139.809C138.199 144.778 136.742 143.475 136.589 141.865L136.129 136.193C135.976 134.583 137.202 133.28 138.812 133.28H144.485C146.094 133.28 147.551 134.583 147.704 136.193L148.164 141.865C148.317 143.475 147.091 144.778 145.481 144.778Z" fill="#9EC5E4"/>
<path d="M159.893 144.778H154.22C152.61 144.778 151.154 143.475 151 141.865L150.541 136.193C150.387 134.583 151.614 133.28 153.224 133.28H158.896C160.506 133.28 161.962 134.583 162.116 136.193L162.576 141.865C162.729 143.475 161.502 144.778 159.893 144.778Z" fill="#9EC5E4"/>
<path d="M174.381 144.778H168.708C167.098 144.778 165.642 143.475 165.489 141.865L165.029 136.193C164.875 134.583 166.102 133.28 167.712 133.28H173.384C174.994 133.28 176.45 134.583 176.604 136.193L177.064 141.865C177.217 143.475 175.99 144.778 174.381 144.778Z" fill="#9EC5E4"/>
<path d="M89.2921 163.559H83.6195C82.0098 163.559 80.5533 162.256 80.4 160.646L79.94 154.974C79.7867 153.364 81.0132 152.061 82.623 152.061H88.2956C89.9054 152.061 91.3618 153.364 91.5151 154.974L91.9751 160.646C92.1284 162.256 90.9019 163.559 89.2921 163.559Z" fill="#9EC5E4"/>
<path d="M103.703 163.559H98.0309C96.4211 163.559 94.9647 162.256 94.8114 160.646L94.3514 154.974C94.1981 153.364 95.4246 152.061 97.0344 152.061H102.707C104.317 152.061 105.773 153.364 105.927 154.974L106.386 160.646C106.54 162.256 105.313 163.559 103.703 163.559Z" fill="#9EC5E4"/>
<path d="M118.192 163.559H112.519C110.909 163.559 109.453 162.256 109.299 160.646L108.839 154.974C108.686 153.364 109.913 152.061 111.522 152.061H117.195C118.805 152.061 120.261 153.364 120.415 154.974L120.875 160.646C121.028 162.256 119.801 163.559 118.192 163.559Z" fill="#9EC5E4"/>
<path d="M132.68 163.559H127.007C125.397 163.559 123.941 162.256 123.787 160.646L123.328 154.974C123.174 153.364 124.401 152.061 126.01 152.061H131.683C133.293 152.061 134.749 153.364 134.903 154.974L135.363 160.646C135.516 162.256 134.289 163.559 132.68 163.559Z" fill="#9EC5E4"/>
<path d="M147.091 163.559H141.418C139.809 163.559 138.352 162.256 138.199 160.646L137.739 154.974C137.586 153.364 138.812 152.061 140.422 152.061H146.094C147.704 152.061 149.161 153.364 149.314 154.974L149.774 160.646C149.927 162.256 148.701 163.559 147.091 163.559Z" fill="#9EC5E4"/>
<path d="M161.579 163.559H155.906C154.297 163.559 152.84 162.256 152.687 160.646L152.227 154.974C152.074 153.364 153.3 152.061 154.91 152.061H160.582C162.192 152.061 163.649 153.364 163.802 154.974L164.262 160.646C164.415 162.256 163.189 163.559 161.579 163.559Z" fill="#9EC5E4"/>
<path d="M175.99 163.559H170.318C168.708 163.559 167.252 162.256 167.098 160.646L166.638 154.974C166.485 153.364 167.712 152.061 169.321 152.061H174.994C176.604 152.061 178.06 153.364 178.213 154.974L178.673 160.646C178.827 162.256 177.6 163.559 175.99 163.559Z" fill="#9EC5E4"/>
<path d="M90.9019 182.417H85.2293C83.6196 182.417 82.1631 181.113 82.0098 179.504L81.5498 173.831C81.3965 172.221 82.623 170.918 84.2328 170.918H89.9054C91.5152 170.918 92.9716 172.221 93.1249 173.831L93.5849 179.504C93.7382 181.113 92.5117 182.417 90.9019 182.417Z" fill="#9EC5E4"/>
<path d="M105.39 182.417H99.7174C98.1076 182.417 96.6511 181.113 96.4978 179.504L96.0379 173.831C95.8846 172.221 97.1111 170.918 98.7209 170.918H104.393C106.003 170.918 107.46 172.221 107.613 173.831L108.073 179.504C108.226 181.113 107 182.417 105.39 182.417Z" fill="#9EC5E4"/>
<path d="M119.801 182.417H114.129C112.519 182.417 111.063 181.113 110.909 179.504L110.449 173.831C110.296 172.221 111.522 170.918 113.132 170.918H118.805C120.415 170.918 121.871 172.221 122.024 173.831L122.484 179.504C122.638 181.113 121.411 182.417 119.801 182.417Z" fill="#9EC5E4"/>
<path d="M134.289 182.417H128.617C127.007 182.417 125.551 181.113 125.397 179.504L124.937 173.831C124.784 172.221 126.011 170.918 127.62 170.918H133.293C134.903 170.918 136.359 172.221 136.512 173.831L136.972 179.504C137.126 181.113 135.899 182.417 134.289 182.417Z" fill="#8AE2E7"/>
<path d="M148.777 182.417H143.105C141.495 182.417 140.039 181.113 139.885 179.504L139.425 173.831C139.272 172.221 140.499 170.918 142.108 170.918H147.781C149.391 170.918 150.847 172.221 151 173.831L151.46 179.504C151.614 181.113 150.387 182.417 148.777 182.417Z" fill="#9EC5E4"/>
<path d="M163.189 182.417H157.516C155.906 182.417 154.45 181.113 154.297 179.504L153.837 173.831C153.683 172.221 154.91 170.918 156.52 170.918H162.192C163.802 170.918 165.259 172.221 165.412 173.831L165.872 179.504C166.025 181.113 164.799 182.417 163.189 182.417Z" fill="#9EC5E4"/>
<path d="M177.677 182.417H172.004C170.394 182.417 168.938 181.113 168.785 179.504L168.325 173.831C168.171 172.221 169.398 170.918 171.008 170.918H176.68C178.29 170.918 179.747 172.221 179.9 173.831L180.36 179.504C180.513 181.113 179.287 182.417 177.677 182.417Z" fill="#9EC5E4"/>
<path d="M176.91 201.197H88.0656C85.8426 201.197 83.8495 199.358 83.6195 197.135C83.3896 194.912 85.076 193.072 87.3757 193.072H176.22C178.443 193.072 180.436 194.912 180.666 197.135C180.896 199.358 179.21 201.197 176.91 201.197Z" fill="#0C6DBB" fill-opacity="0.13"/>
<path d="M177.983 214.076H89.1388C86.9158 214.076 84.9227 212.236 84.6927 210.013C84.4628 207.79 86.1492 205.95 88.4489 205.95H177.294C179.517 205.95 181.51 207.79 181.74 210.013C181.97 212.236 180.283 214.076 177.983 214.076Z" fill="#0C6DBB" fill-opacity="0.13"/>
<path d="M179.133 227.03H90.2886C88.0656 227.03 86.0726 225.191 85.8426 222.968C85.6126 220.745 87.2991 218.905 89.5987 218.905H178.443C180.666 218.905 182.659 220.745 182.889 222.968C183.119 225.191 181.433 227.03 179.133 227.03Z" fill="#0C6DBB" fill-opacity="0.13"/>
<path d="M74.7274 72.5681H72.7344L72.6577 71.4182H74.6508L74.7274 72.5681Z" fill="#084C83"/>
<path d="M77.3338 72.5681H75.3407L75.1107 70.1917H77.1804L77.3338 72.5681Z" fill="#084C83"/>
<path d="M80.0167 72.5681H77.947L77.6404 68.7353H79.6334L80.0167 72.5681Z" fill="#084C83"/>
<path d="M82.623 72.5681H80.63L80.0934 66.6655H82.0864L82.623 72.5681Z" fill="#084C83"/>
<path d="M232.111 248.188C229.122 226.341 227.052 204.417 226.132 182.416C225.365 165.782 225.365 148.534 232.111 133.28C243.916 163.866 249.819 196.905 250.585 229.637C250.739 237.379 244.146 245.351 238.09 250.257C236.327 249.414 233.874 249.031 232.111 248.188Z" fill="#86B6DD"/>
<path d="M232.724 242.055C229.428 233.7 226.209 225.421 222.912 217.065C220.229 210.319 217.546 203.267 218.236 196.061C231.804 201.887 241.54 215.762 242.383 230.48C242.536 233.24 240.927 236.689 239.01 238.682C237.017 240.675 235.177 240.829 232.724 242.055Z" fill="#3D8AC9"/>
<path d="M236.174 260.069C239.01 234.543 241.923 209.016 244.759 183.49C246.369 169.385 248.132 154.667 256.028 142.862C263.923 130.98 277.645 122.395 283.471 109.976C284.007 108.75 285.847 109.133 285.847 110.513C286.077 121.398 286.614 132.513 286.537 143.245C286.537 150.374 286.46 157.81 282.934 163.942C279.408 170.305 272.816 174.291 268.599 180.193C260.474 191.539 262.62 206.87 260.397 220.591C257.944 235.539 247.979 250.564 236.174 260.069Z" fill="#0A5796"/>
<path opacity="0.2" d="M267.603 157.886C268.676 155.587 269.826 153.21 270.899 150.911C270.976 150.911 271.053 150.911 271.129 150.757C275.729 147.308 280.251 143.705 284.621 139.949C284.927 139.642 285.004 139.182 284.697 138.876C284.391 138.569 283.931 138.492 283.624 138.799C279.945 142.019 276.112 145.085 272.202 148.074C275.575 140.562 278.642 132.897 280.481 124.848C280.558 124.464 280.328 124.004 279.868 123.928C279.485 123.851 279.025 124.081 278.948 124.541C276.342 135.963 271.129 146.848 266.147 157.273C265.38 158.806 264.613 160.416 263.923 162.026C263.54 155.74 262.927 149.454 261.93 143.245C261.93 142.862 261.471 142.555 261.087 142.632C260.704 142.632 260.397 143.092 260.474 143.475C261.547 150.527 262.237 157.656 262.62 164.786C262.62 164.786 262.62 164.862 262.62 164.939C260.934 168.542 259.324 172.221 257.868 175.901C256.335 179.81 254.955 183.796 253.728 187.859L251.352 170.075C251.352 169.692 250.892 169.385 250.509 169.385C250.125 169.385 249.819 169.845 249.819 170.228L252.578 190.695C252.578 190.849 252.655 191.002 252.808 191.079C250.662 198.821 248.976 206.717 247.672 214.612C247.059 210.166 246.523 205.72 246.216 201.197C246.216 200.814 245.833 200.431 245.373 200.507C244.913 200.507 244.606 200.891 244.683 201.351C245.066 207.023 245.756 212.772 246.676 218.368C246.676 218.598 246.829 218.752 246.982 218.828C245.373 229.407 244.223 240.139 243.073 250.641C243.073 251.024 243.303 251.407 243.763 251.484C243.763 251.484 243.763 251.484 243.84 251.484C244.223 251.484 244.529 251.177 244.606 250.794C245.373 243.895 246.063 236.919 246.982 229.943C250.969 225.344 254.495 220.285 257.331 214.919C257.561 214.535 257.331 214.076 257.024 213.846C256.641 213.616 256.181 213.846 255.951 214.152C253.498 218.752 250.662 223.121 247.289 227.107C248.209 219.978 249.359 212.926 250.815 205.873C250.815 205.873 250.892 205.873 250.969 205.797C255.185 201.427 259.018 196.675 262.544 191.692C262.774 191.309 262.697 190.849 262.39 190.619C262.007 190.389 261.547 190.465 261.317 190.772C258.328 195.065 255.031 199.128 251.505 202.96C253.268 194.911 255.415 187.016 258.251 179.274C258.251 179.274 258.251 179.274 258.328 179.274C265.227 174.598 271.819 169.385 277.875 163.712C278.182 163.406 278.182 162.946 277.875 162.639C277.568 162.333 277.108 162.333 276.802 162.639C271.283 167.775 265.38 172.604 259.171 176.897C259.171 176.744 259.324 176.591 259.324 176.437C261.777 170.151 264.767 163.942 267.603 157.963V157.886Z" fill="black"/>
<path d="M257.944 276.167H228.278L221.839 234.619H264.383L257.944 276.167Z" fill="#6DA7D6"/>
<path d="M267.91 229.56H216.933V240.445H267.91V229.56Z" fill="#6DA7D6"/>
<path d="M277.241 72.5156C277.241 74.092 275.98 75.4583 274.298 75.4583C272.617 75.4583 271.355 74.1971 271.355 72.5156C271.355 70.8341 272.617 69.5729 274.298 69.5729C275.98 69.5729 277.241 70.8341 277.241 72.5156Z" fill="#0C6DBB" fill-opacity="0.1"/>
<path d="M244.136 19.7579C246.516 19.7579 248.445 17.8288 248.445 15.449C248.445 13.0693 246.516 11.1401 244.136 11.1401C241.756 11.1401 239.827 13.0693 239.827 15.449C239.827 17.8288 241.756 19.7579 244.136 19.7579Z" fill="#0C6DBB" fill-opacity="0.1"/>
<path d="M321.066 107.407C321.066 108.143 320.435 108.773 319.699 108.773C318.964 108.773 318.333 108.143 318.333 107.407C318.333 106.672 318.964 106.041 319.699 106.041C320.435 106.041 321.066 106.672 321.066 107.407Z" fill="#0C6DBB" fill-opacity="0.1"/>
<path d="M167.627 92.3786C168.497 92.3786 169.203 91.6728 169.203 90.8022C169.203 89.9315 168.497 89.2257 167.627 89.2257C166.756 89.2257 166.05 89.9315 166.05 90.8022C166.05 91.6728 166.756 92.3786 167.627 92.3786Z" fill="#0C6DBB" fill-opacity="0.1"/>
<path d="M2.62738 39.3056C4.07844 39.3056 5.25476 38.1293 5.25476 36.6782C5.25476 35.2272 4.07844 34.0508 2.62738 34.0508C1.17632 34.0508 0 35.2272 0 36.6782C0 38.1293 1.17632 39.3056 2.62738 39.3056Z" fill="#0C6DBB" fill-opacity="0.1"/>
<path d="M320.96 65.3692C320.96 66.8405 319.804 67.9965 318.333 67.9965C316.862 67.9965 315.706 66.8405 315.706 65.3692C315.706 63.8978 316.862 62.7418 318.333 62.7418C319.804 62.7418 320.96 63.8978 320.96 65.3692Z" fill="#0C6DBB" fill-opacity="0.1"/>
<path d="M281.024 30.3725C281.55 32.1591 282.916 33.6304 284.703 34.0508C282.916 34.5763 281.445 35.9425 281.024 37.7292C280.499 35.9425 279.133 34.4712 277.346 34.0508C279.133 33.5254 280.604 32.1591 281.024 30.3725Z" fill="#0C6DBB" fill-opacity="0.1"/>
<path d="M29.9521 0C30.4776 1.78662 31.8438 3.25795 33.6304 3.67833C31.8438 4.2038 30.3725 5.57004 29.9521 7.35666C29.4266 5.57004 28.0604 4.09871 26.2738 3.67833C28.0604 3.15285 29.5317 1.78662 29.9521 0Z" fill="#0C6DBB" fill-opacity="0.1"/>
<path d="M211.451 0C211.977 1.78662 213.343 3.25795 215.13 3.67833C213.343 4.2038 211.872 5.57004 211.451 7.35666C210.926 5.57004 209.56 4.09871 207.773 3.67833C209.56 3.15285 211.031 1.78662 211.451 0Z" fill="#0C6DBB" fill-opacity="0.1"/>
<path d="M55.8055 45.5062C56.331 47.2928 57.6972 48.7641 59.4838 49.1845C57.6972 49.71 56.2259 51.0762 55.8055 52.8628C55.28 51.0762 53.9138 49.6049 52.1272 49.1845C53.9138 48.659 55.3851 47.2928 55.8055 45.5062Z" fill="#0C6DBB" fill-opacity="0.1"/>
<path d="M357.008 60.1144C357.534 61.901 358.9 63.3723 360.686 63.7927C358.9 64.3182 357.428 65.6844 357.008 67.471C356.483 65.6844 355.116 64.2131 353.33 63.7927C355.116 63.2672 356.588 61.901 357.008 60.1144Z" fill="#0C6DBB" fill-opacity="0.1"/>
<path d="M357.008 130.108C357.534 131.894 358.9 133.366 360.686 133.786C358.9 134.312 357.428 135.678 357.008 137.464C356.483 135.678 355.116 134.206 353.33 133.786C355.116 133.261 356.588 131.894 357.008 130.108Z" fill="#0C6DBB" fill-opacity="0.1"/>
<path d="M326.951 150.181C327.476 151.967 328.843 153.439 330.629 153.859C328.843 154.385 327.371 155.751 326.951 157.538C326.425 155.751 325.059 154.28 323.272 153.859C325.059 153.334 326.53 151.967 326.951 150.181Z" fill="#0C6DBB" fill-opacity="0.1"/>
<path d="M352.462 280H15.4804C14.4072 280 13.564 279.157 13.564 278.084C13.564 277.01 14.4072 276.167 15.4804 276.167H352.462C353.535 276.167 354.378 277.01 354.378 278.084C354.378 279.157 353.535 280 352.462 280Z" fill="#0A5796"/>
</svg>
