<svg width="394" height="280" viewBox="0 0 394 280" fill="none" xmlns="http://www.w3.org/2000/svg">
<path d="M342.444 273.516C344.029 272.46 345.508 271.297 346.882 270.029C365.48 253.756 363.472 227.021 360.302 204.936C357.555 185.81 361.465 171.016 367.699 153.369C373.511 136.779 379.323 115.222 369.496 98.6321C357.766 78.8718 335.998 83.5213 316.555 83.4156C291.088 83.2043 268.686 67.0367 261.712 42.3099C255.689 21.0701 233.075 9.34074 213.949 4.26857C189.116 -2.28298 161.959 2.78917 140.402 17.7944C124.341 29.1011 109.441 44.3176 92.0054 54.0393C72.6678 64.8176 49.4203 63.0212 30.928 75.7017C9.15995 90.7068 1.86869 125.261 16.9795 148.508C27.4409 164.676 44.2425 181.372 41.7064 202.189C39.0646 223.851 15.5002 242.238 24.7991 265.274C48.0755 265.816 41.2422 274.573 53.5 276.581C79.0722 280.808 102.889 280.596 127.511 276.581C153.611 272.248 172.632 269.184 207.186 276.581C228.426 281.125 254.077 277.916 275.845 279.184C298.352 280.452 318.005 281.241 342.55 273.622L342.444 273.516Z" fill="#E4EEF6"/>
<path d="M291.916 31.2145C290.542 30.4748 289.063 30.1578 287.795 29.3124C284.202 26.882 283.462 21.8098 281.983 17.7943C280.292 13.2505 275.748 10.8201 271.099 11.2428C267.717 11.5598 265.181 13.5675 262.962 15.998C261.483 17.583 261.06 22.6552 256.727 22.7609C255.882 22.7609 255.248 22.0212 254.508 21.4928C252.395 20.0134 249.119 21.0701 248.168 23.7119C247.746 24.9799 247.745 26.4593 247.006 27.6217C245.104 30.4748 240.56 28.2557 238.024 30.4748C237.178 31.3201 236.756 32.5882 235.91 33.5392C234.748 34.9129 233.057 35.4413 231.472 35.9696C227.034 37.2377 221.222 37.449 221.222 38.9284C221.222 41.0418 244.258 39.7738 257.89 39.7738H280.292C283.779 39.7738 294.874 41.4645 294.769 34.9129C294.769 33.2222 293.395 31.9542 292.127 31.3201L291.916 31.2145Z" fill="#FFF7F5"/>
<path d="M90.7194 93.5599C89.7684 92.2919 89.4513 90.7068 88.8173 89.3331C87.3379 86.2687 83.7451 84.3666 80.3637 84.6836C78.7786 84.895 77.2993 85.4233 75.7142 85.4233C68.423 85.4233 68.0003 76.23 62.5054 73.2712C57.6446 70.7351 51.6214 72.7429 48.5569 76.864C46.7605 79.1888 46.0209 82.0419 44.6472 84.6836C43.3791 87.3254 40.9487 87.6424 37.9899 88.1708C35.2425 88.6991 31.9667 91.2352 32.8121 94.2996C33.1291 95.5677 34.0801 96.73 35.2425 97.3641C39.892 99.7945 48.1343 99.5831 54.1575 99.3718C59.8637 99.2661 106.253 99.6888 106.253 98.2094C106.253 96.73 93.4668 97.0471 90.7194 93.4543V93.5599Z" fill="#FFF7F5"/>
<path d="M138.588 15.1526C138.588 15.1526 138.588 15.1526 138.482 15.0469C137.214 13.6732 136.686 12.1938 134.467 12.0882C131.931 11.9825 127.704 12.6165 126.647 9.55209C126.013 7.65002 126.647 5.53661 125.274 3.84588C124.322 2.68351 122.737 2.26083 121.258 2.26083C118.722 2.3665 116.609 4.1629 114.178 4.47991C111.219 4.90259 109.846 2.04949 107.521 0.887119C103.4 -1.12062 99.807 0.675781 97.6936 2.3665C95.3688 4.1629 93.7838 7.01599 93.3611 9.97476C92.8328 13.5676 96.1085 17.0547 99.5957 18.6397C101.286 19.3794 103.294 19.5908 105.196 19.5908C107.415 19.5908 109.634 19.5908 111.853 19.4851C116.08 19.4851 150.212 19.6964 150.212 18.6397C150.212 17.583 145.245 17.3717 144.506 17.1603C142.498 16.632 140.173 16.8433 138.588 15.2583V15.1526Z" fill="#FFF7F5"/>
<path d="M105.936 227.973C101.603 197.011 85.2245 164.359 64.6188 144.176C57.0106 136.779 48.0286 129.699 37.3559 127.586C30.4874 126.212 22.9848 127.057 17.0672 130.862C5.54917 138.258 5.76052 151.573 13.5801 161.4C28.7966 180.738 53.5235 187.606 73.0725 201.132C85.4359 209.692 95.8972 220.998 103.505 233.89" fill="#D9E0E6"/>
<path d="M24.4641 137.096C52.5724 152.947 75.8199 177.145 90.508 205.887C94.7348 214.13 98.1163 222.583 101.075 231.354C101.181 231.777 101.815 231.565 101.709 231.143C92.7271 200.076 72.5441 171.967 47.5002 151.89C40.4203 146.184 32.7064 141.112 24.7811 136.779C24.5698 136.673 24.3584 136.99 24.5698 137.202L24.4641 137.096Z" fill="#5599CF"/>
<path d="M19.7089 157.913C30.91 158.124 42.111 158.336 53.4177 158.336C53.8404 158.336 53.8404 157.596 53.4177 157.596C42.2167 157.596 31.0156 157.596 19.7089 157.596C19.4976 157.596 19.4976 157.807 19.7089 157.807V157.913Z" fill="#5599CF"/>
<path d="M54.2631 139.21C55.9538 147.24 57.8559 155.271 59.758 163.197C59.758 163.514 60.2863 163.408 60.1806 163.091C58.2786 155.06 56.4822 147.135 54.4744 139.21C54.4744 139.104 54.2631 139.21 54.2631 139.21Z" fill="#5599CF"/>
<path d="M40.7373 176.405C49.9306 175.243 59.2296 174.081 68.423 172.813C68.8456 172.813 68.6343 172.179 68.2116 172.179C59.0183 173.447 49.825 174.926 40.6317 176.3L40.7373 176.405Z" fill="#5599CF"/>
<path d="M79.307 169.431C79.8354 175.877 80.3637 182.429 80.8921 188.875C80.8921 189.297 81.5261 189.297 81.5261 188.875C80.8921 182.429 80.2581 175.877 79.624 169.431C79.624 169.22 79.307 169.22 79.4127 169.431H79.307Z" fill="#5599CF"/>
<path d="M75.9255 200.71C78.0389 200.604 80.258 200.498 82.3714 200.287C83.9564 200.181 86.5982 200.498 87.9719 199.759C88.1833 199.759 88.0776 199.442 87.9719 199.442C86.3869 198.913 83.7451 199.653 82.16 199.864C80.0466 200.076 78.0389 200.287 75.9255 200.498C75.8198 200.498 75.8198 200.71 75.9255 200.71Z" fill="#5599CF"/>
<path d="M111.325 230.297C122.315 201.238 123.583 165.31 115.446 138.258C112.487 128.325 108.049 118.075 99.9127 111.313C94.6291 106.98 87.8662 104.233 80.9977 104.867C67.6832 106.135 61.5544 117.758 63.5621 130.016C67.4719 153.792 85.4358 171.016 95.7915 191.833C102.343 204.936 102.766 222.583 103.188 237.377" fill="#0C6DBB"/>
<path d="M84.2735 113.849C100.969 140.689 109.317 172.39 108.472 203.985C108.155 213.073 107.098 222.055 105.513 231.037C105.513 231.46 106.042 231.565 106.147 231.248C113.121 200.287 109.212 166.472 97.0596 137.307C93.6781 129.065 89.4513 121.246 84.6961 113.743C84.5905 113.532 84.1678 113.743 84.2735 113.954V113.849Z" fill="#5599CF"/>
<path d="M91.2477 111.207C91.4591 116.913 91.7761 122.725 92.4101 128.325C92.4101 128.642 92.9384 128.642 92.9384 128.325C92.7271 122.619 92.0931 116.807 91.4591 111.207C91.4591 111.101 91.2477 111.101 91.2477 111.207Z" fill="#5599CF"/>
<path d="M71.0648 139.949C80.6807 143.965 90.8251 147.135 100.652 150.622C100.969 150.728 101.181 150.199 100.758 150.094C90.9308 146.606 81.1034 142.591 71.0648 139.632C70.8534 139.632 70.8534 139.844 71.0648 139.949Z" fill="#5599CF"/>
<path d="M257.89 152.63C259.475 130.65 269.513 106.98 283.145 91.7636C288.111 86.163 294.135 80.8795 301.532 78.7661C306.287 77.4981 311.676 77.7094 316.008 80.1398C324.462 84.7893 324.99 94.194 319.918 101.485C310.091 115.751 293.078 121.774 279.869 132.235C271.521 138.787 264.758 147.24 260.003 156.751" fill="#0C6DBB"/>
<path d="M310.831 84.6836C286.421 100.217 266.977 126.106 260.954 154.743C260.954 155.166 261.483 155.271 261.588 154.954C265.498 140.9 271.099 127.691 279.552 115.751C288.006 103.704 298.784 93.2429 311.042 85.212C311.253 85.1063 311.042 84.6836 310.831 84.7893V84.6836Z" fill="#5599CF"/>
<path d="M315.269 99.1605C307.344 99.5831 299.524 100.112 291.599 100.64C291.176 100.64 291.176 101.38 291.599 101.38C299.524 100.851 307.344 100.217 315.269 99.4775C315.374 99.4775 315.48 99.2661 315.269 99.2661V99.1605Z" fill="#5599CF"/>
<path d="M289.908 87.7481C288.851 93.4543 288.006 99.1605 286.949 104.867C286.949 105.184 287.372 105.289 287.372 104.972C288.217 99.2662 289.274 93.56 290.119 87.8538C290.119 87.7481 289.908 87.6424 289.908 87.8538V87.7481Z" fill="#5599CF"/>
<path d="M301.32 113.32C294.769 112.686 288.217 112.052 281.666 111.63C281.243 111.63 281.243 112.264 281.666 112.264C288.217 112.792 294.769 113.109 301.32 113.426V113.32Z" fill="#5599CF"/>
<path d="M273.74 110.256C273.529 114.8 273.635 119.449 273.212 123.993C273.212 124.416 273.846 124.416 273.846 123.993C273.74 119.449 273.952 114.8 274.057 110.256C274.057 110.045 273.846 110.045 273.846 110.256H273.74Z" fill="#5599CF"/>
<path d="M277.65 131.918C276.171 131.918 274.586 131.707 273.106 131.707C272.155 131.707 271.204 131.707 270.253 131.707C269.936 131.707 269.408 131.601 269.091 131.707C268.985 131.707 268.985 132.024 269.091 132.024C269.408 132.235 269.83 132.13 270.147 132.13C271.098 132.13 272.155 132.13 273.106 132.13C274.691 132.13 276.171 132.13 277.65 132.13C277.756 132.13 277.756 131.918 277.65 131.918Z" fill="#5599CF"/>
<path d="M254.402 160.555C258.524 154.426 264.018 149.565 269.725 144.81C280.503 135.934 292.866 128.008 307.449 131.284C309.985 131.918 312.627 132.764 314.635 134.349C317.593 136.673 319.073 140.055 318.861 143.753C318.439 150.094 312.31 154.32 306.709 156.117C300.263 158.23 293.395 157.807 286.632 158.125C272.472 158.864 257.467 166.684 251.549 176.405" fill="#0C6DBB"/>
<path d="M309.774 139.104C297.516 139.527 285.575 142.908 274.903 148.931C264.547 154.743 254.508 163.302 248.591 173.764C248.379 174.081 248.802 174.292 249.013 173.975C252.606 169.009 256.305 164.253 260.743 160.027C265.075 155.905 269.936 152.418 275.114 149.46C285.681 143.436 297.516 140.055 309.668 139.527C309.985 139.527 309.985 139.104 309.668 139.104H309.774Z" fill="#5599CF"/>
<path d="M307.872 133.82C304.913 135.828 301.849 137.941 298.995 140.055C298.678 140.266 298.995 140.689 299.207 140.478C302.166 138.364 305.019 136.145 307.977 133.926C307.977 133.926 307.977 133.715 307.977 133.82H307.872Z" fill="#5599CF"/>
<path d="M305.124 150.516C300.369 147.874 295.614 145.127 290.859 142.38C290.542 142.168 290.225 142.697 290.542 142.908C295.403 145.55 300.263 148.086 305.019 150.728C305.124 150.728 305.23 150.622 305.124 150.516Z" fill="#5599CF"/>
<path d="M288.323 135.088C287.16 136.885 285.998 138.787 284.836 140.689C284.096 141.851 283.568 143.014 282.828 144.176C282.617 144.387 282.194 144.81 282.3 145.127C282.3 145.127 282.299 145.127 282.405 145.127C282.722 145.127 282.934 144.493 283.039 144.176C283.673 143.014 284.519 141.957 285.153 140.795C286.315 138.892 287.372 136.99 288.534 135.088C288.534 134.983 288.428 134.877 288.323 134.983V135.088Z" fill="#5599CF"/>
<path d="M277.65 157.49C276.276 156.645 274.797 155.694 273.423 154.849C272.578 154.32 271.627 153.686 270.781 153.158C270.464 152.947 270.042 152.63 269.619 152.524C269.408 152.524 269.302 152.735 269.408 152.841C269.619 153.158 270.042 153.369 270.359 153.581C271.31 154.109 272.261 154.743 273.106 155.271C274.586 156.117 275.959 156.962 277.439 157.807C277.65 157.913 277.756 157.596 277.65 157.49Z" fill="#5599CF"/>
<path d="M264.864 150.411C264.124 152.841 263.384 155.166 262.856 157.596C262.856 158.019 263.384 158.124 263.49 157.807C264.23 155.377 264.652 152.947 265.181 150.516C265.181 150.411 264.969 150.305 264.969 150.516L264.864 150.411Z" fill="#5599CF"/>
<path d="M244.681 123.57C243.624 116.279 244.47 108.882 245.526 101.697C247.64 87.8538 251.549 73.6939 264.547 66.4027C266.872 65.1346 269.408 64.0779 272.049 63.8666C275.854 63.5496 279.129 65.1346 281.454 67.9877C285.364 72.9542 283.568 80.2455 280.714 85.212C277.333 91.1295 271.944 95.3563 267.189 100.111C257.15 110.15 251.232 125.895 253.346 137.096" fill="#074170"/>
<path d="M271.415 70.6295C262.539 79.0831 255.988 89.6502 252.078 101.274C248.274 112.475 246.583 125.684 249.119 137.413C249.119 137.73 249.647 137.624 249.647 137.413C248.379 125.261 248.696 113.637 252.5 101.908C256.305 90.2842 262.856 79.6115 271.732 71.0522C271.944 70.8409 271.627 70.5239 271.415 70.7352V70.6295Z" fill="#0A5796"/>
<path d="M266.555 67.9878C265.709 71.4749 264.864 75.0677 264.124 78.5548C264.124 78.8718 264.547 78.9775 264.652 78.6605C265.392 75.0677 266.132 71.5805 266.766 67.9878C266.766 67.9878 266.66 67.8821 266.66 67.9878H266.555Z" fill="#0A5796"/>
<path d="M275.642 82.2532C270.253 83.5213 264.97 84.578 259.58 85.7404C259.158 85.7404 259.369 86.3744 259.792 86.2687C265.075 85.0007 270.465 83.627 275.748 82.3589C275.854 82.3589 275.748 82.1476 275.748 82.1476L275.642 82.2532Z" fill="#0A5796"/>
<path d="M252.923 82.0419C253.24 84.1553 253.663 86.2687 253.98 88.3821C254.191 89.6501 254.508 90.9182 254.719 92.1862C254.719 92.5032 254.719 93.3486 255.036 93.4543H255.142C255.353 93.2429 255.142 92.6089 255.036 92.3976C254.825 91.1295 254.614 89.8615 254.402 88.4878C253.98 86.2687 253.557 84.1553 253.029 81.9362C253.029 81.8305 252.817 81.9362 252.817 81.9362L252.923 82.0419Z" fill="#0A5796"/>
<path d="M259.792 105.818C258.207 106.135 256.622 106.346 254.931 106.663C253.769 106.874 251.444 106.769 250.493 107.508C250.387 107.614 250.387 107.825 250.493 107.931C251.655 108.248 253.769 107.403 254.931 107.191C256.622 106.769 258.207 106.557 259.897 106.135C260.109 106.135 260.003 105.818 259.897 105.818H259.792Z" fill="#0A5796"/>
<path d="M245.632 109.093C246.372 111.418 247.745 113.743 248.908 115.856C249.119 116.173 249.647 115.856 249.436 115.539C248.908 114.483 248.379 113.532 247.745 112.475C247.111 111.313 246.266 110.256 245.738 108.988C245.738 108.882 245.526 108.988 245.526 108.988L245.632 109.093Z" fill="#0A5796"/>
<path d="M291.282 247.627C291.282 251.431 240.243 254.496 177.263 254.496C114.284 254.496 63.2451 251.431 63.2451 247.627C63.2451 243.823 114.284 240.759 177.263 240.759C240.243 240.759 291.282 243.823 291.282 247.627Z" fill="#9EC5E4"/>
<path d="M105.513 232.199C101.709 232.199 98.5389 235.264 98.5389 239.174V53.9336C98.5389 50.1295 101.603 46.9594 105.513 46.9594H255.776V232.199H105.513Z" fill="#86B6DD"/>
<path d="M271.099 53.7223H114.812V236.109H271.099V53.7223Z" fill="#3D8AC9"/>
<path d="M261.06 64.1836H177.158V67.4594H261.06V64.1836Z" fill="#3D8AC9"/>
<path d="M261.06 70.3125H177.158V73.5882H261.06V70.3125Z" fill="#3D8AC9"/>
<path d="M261.06 76.4413H177.158V79.7171H261.06V76.4413Z" fill="#3D8AC9"/>
<path d="M261.06 82.5702H177.158V85.846H261.06V82.5702Z" fill="#3D8AC9"/>
<path d="M261.06 88.8047H177.158V92.0805H261.06V88.8047Z" fill="#3D8AC9"/>
<path d="M261.06 94.9336H177.158V98.2094H261.06V94.9336Z" fill="#3D8AC9"/>
<path d="M261.06 101.063H177.158V104.338H261.06V101.063Z" fill="#3D8AC9"/>
<path d="M261.06 107.191H177.158V110.467H261.06V107.191Z" fill="#3D8AC9"/>
<path d="M261.06 123.465H177.158V126.74H261.06V123.465Z" fill="#3D8AC9"/>
<path d="M261.06 129.593H177.158V132.869H261.06V129.593Z" fill="#3D8AC9"/>
<path d="M261.06 135.828H177.158V139.104H261.06V135.828Z" fill="#3D8AC9"/>
<path d="M261.06 141.957H177.158V145.233H261.06V141.957Z" fill="#3D8AC9"/>
<path d="M261.06 148.086H177.158V151.362H261.06V148.086Z" fill="#3D8AC9"/>
<path d="M261.06 154.215H177.158V157.49H261.06V154.215Z" fill="#3D8AC9"/>
<path d="M261.06 160.344H177.158V163.619H261.06V160.344Z" fill="#3D8AC9"/>
<path d="M261.06 166.578H177.158V169.854H261.06V166.578Z" fill="#3D8AC9"/>
<path d="M261.06 172.707H177.158V175.983H261.06V172.707Z" fill="#3D8AC9"/>
<path d="M261.06 178.836H177.158V182.112H261.06V178.836Z" fill="#3D8AC9"/>
<path d="M261.06 184.965H177.158V188.241H261.06V184.965Z" fill="#3D8AC9"/>
<path d="M261.06 191.094H177.158V194.369H261.06V191.094Z" fill="#3D8AC9"/>
<path d="M261.06 197.328H177.158V200.604H261.06V197.328Z" fill="#3D8AC9"/>
<path d="M261.06 203.457H177.158V206.733H261.06V203.457Z" fill="#3D8AC9"/>
<path d="M261.06 209.586H177.158V212.862H261.06V209.586Z" fill="#3D8AC9"/>
<path d="M261.06 215.715H177.158V218.991H261.06V215.715Z" fill="#3D8AC9"/>
<path d="M261.06 221.844H177.158V225.119H261.06V221.844Z" fill="#3D8AC9"/>
<path d="M261.06 228.078H177.158V231.354H261.06V228.078Z" fill="#3D8AC9"/>
<path d="M105.513 61.5419C101.709 61.5419 98.5389 58.4774 98.5389 54.5676V239.808C98.5389 243.612 101.603 246.782 105.513 246.782H249.225V61.5419H105.513Z" fill="white"/>
<path d="M105.83 48.5444H255.776V46.9594H105.83C101.815 46.9594 98.5389 50.2351 98.5389 54.2506C98.5389 58.2661 101.815 61.5419 105.83 61.5419H249.225V59.9568H105.83C102.766 59.9568 100.23 57.4207 100.23 54.3563C100.23 51.2918 102.766 48.7557 105.83 48.7557V48.5444Z" fill="#9EC5E4" fill-opacity="0.3"/>
<path d="M182.969 110.89H112.804V114.166H182.969V110.89Z" fill="#9EC5E4" fill-opacity="0.3"/>
<path d="M182.969 117.019H112.804V120.295H182.969V117.019Z" fill="#9EC5E4" fill-opacity="0.3"/>
<path d="M182.969 123.148H112.804V126.423H182.969V123.148Z" fill="#9EC5E4" fill-opacity="0.3"/>
<path d="M182.969 129.276H112.804V132.552H182.969V129.276Z" fill="#9EC5E4" fill-opacity="0.3"/>
<path d="M182.969 135.405H112.804V138.681H182.969V135.405Z" fill="#9EC5E4" fill-opacity="0.3"/>
<path d="M182.969 141.64H112.804V144.916H182.969V141.64Z" fill="#9EC5E4" fill-opacity="0.3"/>
<path d="M182.969 147.769H112.804V151.045H182.969V147.769Z" fill="#9EC5E4" fill-opacity="0.3"/>
<path d="M182.969 153.898H112.804V157.173H182.969V153.898Z" fill="#9EC5E4" fill-opacity="0.3"/>
<path d="M235.645 76.547H112.804V79.8228H235.645V76.547Z" fill="#9EC5E4" fill-opacity="0.3"/>
<path d="M235.645 82.6759H112.804V85.9517H235.645V82.6759Z" fill="#9EC5E4" fill-opacity="0.3"/>
<path d="M235.645 88.8047H112.804V92.0805H235.645V88.8047Z" fill="#9EC5E4" fill-opacity="0.3"/>
<path d="M235.645 94.9337H112.804V98.2095H235.645V94.9337Z" fill="#9EC5E4" fill-opacity="0.3"/>
<path d="M182.969 167.001H112.804V170.277H182.969V167.001Z" fill="#9EC5E4" fill-opacity="0.3"/>
<path d="M182.969 173.13H112.804V176.405H182.969V173.13Z" fill="#9EC5E4" fill-opacity="0.3"/>
<path d="M182.969 179.259H112.804V182.534H182.969V179.259Z" fill="#9EC5E4" fill-opacity="0.3"/>
<path d="M182.969 185.493H112.804V188.769H182.969V185.493Z" fill="#9EC5E4" fill-opacity="0.3"/>
<path d="M182.969 191.622H112.804V194.898H182.969V191.622Z" fill="#9EC5E4" fill-opacity="0.3"/>
<path d="M182.969 197.751H112.804V201.027H182.969V197.751Z" fill="#9EC5E4" fill-opacity="0.3"/>
<path d="M182.969 203.88H112.804V207.155H182.969V203.88Z" fill="#9EC5E4" fill-opacity="0.3"/>
<path d="M182.969 210.009H112.804V213.284H182.969V210.009Z" fill="#9EC5E4" fill-opacity="0.3"/>
<path d="M182.969 216.243H112.804V219.519H182.969V216.243Z" fill="#9EC5E4" fill-opacity="0.3"/>
<path d="M182.969 222.372H112.804V225.648H182.969V222.372Z" fill="#9EC5E4" fill-opacity="0.3"/>
<path d="M182.969 228.501H112.804V231.777H182.969V228.501Z" fill="#9EC5E4" fill-opacity="0.3"/>
<path d="M182.969 234.63H112.804V237.906H182.969V234.63Z" fill="#9EC5E4" fill-opacity="0.3"/>
<path d="M236.227 167.001H189.627V170.277H236.227V167.001Z" fill="#9EC5E4" fill-opacity="0.3"/>
<path d="M236.227 173.13H189.627V176.405H236.227V173.13Z" fill="#9EC5E4" fill-opacity="0.3"/>
<path d="M236.227 160.978H189.627V164.253H236.227V160.978Z" fill="#9EC5E4" fill-opacity="0.3"/>
<path d="M236.227 154.954H189.627V158.23H236.227V154.954Z" fill="#9EC5E4" fill-opacity="0.3"/>
<path d="M236.227 148.931H189.627V152.207H236.227V148.931Z" fill="#9EC5E4" fill-opacity="0.3"/>
<path d="M236.227 179.259H189.627V182.534H236.227V179.259Z" fill="#9EC5E4" fill-opacity="0.3"/>
<path d="M236.227 185.493H189.627V188.769H236.227V185.493Z" fill="#9EC5E4" fill-opacity="0.3"/>
<path d="M236.227 191.622H189.627V194.898H236.227V191.622Z" fill="#9EC5E4" fill-opacity="0.3"/>
<path d="M236.227 197.751H189.627V201.027H236.227V197.751Z" fill="#9EC5E4" fill-opacity="0.3"/>
<path d="M236.227 203.88H189.627V207.155H236.227V203.88Z" fill="#9EC5E4" fill-opacity="0.3"/>
<path d="M236.227 210.009H189.627V213.284H236.227V210.009Z" fill="#9EC5E4" fill-opacity="0.3"/>
<path d="M236.227 216.243H189.627V219.519H236.227V216.243Z" fill="#9EC5E4" fill-opacity="0.3"/>
<path d="M236.227 222.372H189.627V225.648H236.227V222.372Z" fill="#9EC5E4" fill-opacity="0.3"/>
<path d="M236.227 228.501H189.627V231.777H236.227V228.501Z" fill="#9EC5E4" fill-opacity="0.3"/>
<path d="M236.227 234.63H189.627V237.906H236.227V234.63Z" fill="#9EC5E4" fill-opacity="0.3"/>
<path d="M236.227 110.89H189.627V146.184H236.227V110.89Z" fill="#9EC5E4" fill-opacity="0.3"/>
<path d="M207.696 118.604L195.438 142.274H220.06L207.696 118.604Z" fill="#A1E8EB"/>
<path d="M220.799 126.423L217.841 132.13L223.23 142.274H229.147L220.799 126.423Z" fill="#A1E8EB"/>
<path d="M224.815 122.091C226.215 122.091 227.351 120.955 227.351 119.555C227.351 118.154 226.215 117.019 224.815 117.019C223.414 117.019 222.279 118.154 222.279 119.555C222.279 120.955 223.414 122.091 224.815 122.091Z" fill="#A1E8EB"/>
<path d="M112.804 105.818H236.227" stroke="#0C6DBB" stroke-miterlimit="10"/>
<path d="M112.804 67.9877H236.227" stroke="#0C6DBB" stroke-miterlimit="10"/>
<path d="M262.856 275.947C292.386 275.947 316.325 272.115 316.325 267.388C316.325 262.66 292.386 258.828 262.856 258.828C233.326 258.828 209.387 262.66 209.387 267.388C209.387 272.115 233.326 275.947 262.856 275.947Z" fill="#9EC5E4"/>
<path d="M333.444 265.591C333.444 267.705 322.032 269.501 307.977 269.501C293.923 269.501 282.511 267.705 282.511 265.591C282.511 263.478 293.923 261.681 307.977 261.681C322.032 261.681 333.444 263.478 333.444 265.591Z" fill="#9EC5E4"/>
<path d="M305.441 256.821C305.441 256.821 284.624 263.795 258.841 263.795C233.057 263.795 212.24 256.821 212.24 256.821C212.24 256.821 213.508 267.705 258.841 267.705C304.173 267.705 305.441 256.821 305.441 256.821Z" fill="white"/>
<path d="M305.441 256.821C305.441 260.625 284.624 263.795 258.841 263.795C233.057 263.795 212.24 260.73 212.24 256.821C212.24 252.911 233.057 249.846 258.841 249.846C284.624 249.846 305.441 252.911 305.441 256.821Z" fill="#9EC5E4"/>
<path d="M243.202 258.934C247.323 259.991 252.818 260.625 258.841 260.625C264.864 260.625 270.359 259.991 274.48 258.934V250.692C270.359 251.748 264.864 252.382 258.841 252.382C252.818 252.382 247.323 251.748 243.202 250.692V258.934Z" fill="#084C83"/>
<path d="M227.245 209.586H290.436V229.769C290.436 244.14 278.707 255.869 264.336 255.869H253.346C238.975 255.869 227.245 244.14 227.245 229.769V209.586Z" fill="#074170"/>
<path d="M258.841 214.235C276.29 214.235 290.436 212.154 290.436 209.586C290.436 207.018 276.29 204.936 258.841 204.936C241.391 204.936 227.245 207.018 227.245 209.586C227.245 212.154 241.391 214.235 258.841 214.235Z" fill="#084C83"/>
<path d="M233.269 212.333C238.975 213.496 248.379 214.235 258.841 214.235C269.302 214.235 278.707 213.496 284.413 212.333C278.707 211.171 269.302 210.431 258.841 210.431C248.379 210.431 238.975 211.171 233.269 212.333Z" fill="#562118"/>
<g opacity="0.5">
<path d="M272.472 212.333C270.887 212.333 269.302 212.333 267.611 212.333C266.66 212.333 265.709 212.333 264.864 212.333C264.653 212.333 264.441 212.333 264.336 212.122C264.124 211.911 264.653 211.699 264.97 211.594C264.653 210.96 263.173 211.277 262.433 211.277C260.003 211.277 257.573 211.277 255.142 211.277C253.029 211.277 250.915 211.382 248.908 211.488C247.64 211.488 246.372 211.488 245.104 211.699C243.836 211.805 242.567 212.016 241.405 212.122C240.877 212.122 239.397 212.122 239.186 212.545V212.756C239.82 213.073 241.088 213.073 241.828 213.179C242.884 213.179 243.941 213.179 244.892 213.179C247.006 213.179 249.013 213.179 251.127 213.179C255.248 213.179 259.369 213.179 263.49 213.179C267.611 213.179 271.838 212.862 275.959 212.65C276.171 212.65 276.488 212.545 276.488 212.333C276.488 212.228 276.171 212.228 275.959 212.228C274.797 212.228 273.529 212.228 272.366 212.228L272.472 212.333Z" fill="#7C382F"/>
</g>
<path d="M244.998 213.179C244.998 213.179 248.274 212.545 249.648 210.748C252.395 206.944 247.851 202.823 244.892 200.921C241.088 198.491 235.805 197.645 234.008 192.996C231.895 187.712 235.488 181.795 239.926 178.942C243.624 176.511 247.957 175.243 252.078 173.764C256.622 172.073 261.377 169.22 264.019 164.993C267.4 159.604 266.661 152.63 267.189 146.606C268.88 122.831 293.184 111.101 313.578 110.573C323.828 110.362 339.362 113.954 346.23 121.985C348.555 124.627 350.246 127.797 350.88 131.284C351.936 136.673 349.823 141.534 346.336 145.55C342.849 149.565 337.988 151.89 334.184 155.483C329.429 159.921 333.444 164.57 331.648 169.748C330.063 174.609 325.096 177.674 320.447 179.153C308.4 183.063 295.509 179.893 283.251 182.429C280.503 182.957 277.756 183.908 275.643 185.81C271.733 189.509 273.952 193.63 274.797 198.068C276.171 205.148 272.367 210.96 265.392 212.862" fill="url(#paint0_linear_723_1133)"/>
<path d="M122.632 265.802C122.632 267.599 116.503 269.078 109 269.078C101.498 269.078 95.3688 267.599 95.3688 265.802C95.3688 264.006 101.498 262.527 109 262.527C116.503 262.527 122.632 264.006 122.632 265.802Z" fill="#9EC5E4"/>
<path d="M116.82 252.699C117.031 251.537 116.08 250.058 114.284 250.903C113.544 251.326 113.333 252.277 113.121 253.016C112.593 254.601 111.853 256.398 110.797 257.772C109.212 259.885 104.245 260.096 104.034 260.413C103.822 260.73 104.879 261.681 105.619 261.893C104.668 261.893 102.977 262.315 102.977 262.632C102.977 262.949 104.245 263.055 104.879 263.266C104.245 263.9 103.188 263.689 103.4 264.217C103.505 264.746 110.268 265.485 113.438 264.429C115.763 263.689 118.405 261.893 118.194 258.617C118.088 256.609 116.609 254.707 116.926 252.699H116.82Z" fill="#4390FF"/>
<path d="M115.974 251.537C116.291 251.431 116.609 251.326 117.031 251.22C117.031 251.22 117.031 251.431 117.031 251.537C117.031 251.748 116.82 251.96 116.714 252.171" fill="#4390FF"/>
<path d="M112.065 266.859C111.853 266.754 111.536 266.648 111.325 266.648C111.325 266.648 111.325 266.437 111.325 266.331C111.325 265.802 111.325 265.274 111.325 264.64C111.325 264.429 111.114 264.429 111.114 264.64C111.114 265.274 111.008 266.648 111.008 266.648C111.008 267.176 111.008 267.705 111.325 268.022C111.325 268.127 111.536 268.022 111.536 267.916C111.536 267.705 111.536 267.493 111.536 267.282C111.748 267.388 111.853 267.493 112.065 267.599C112.17 267.599 112.276 267.599 112.17 267.388C112.065 267.282 111.853 267.176 111.748 267.071C111.748 267.071 111.748 267.071 111.748 266.965C111.959 266.965 112.17 267.071 112.382 267.071V266.965L112.065 266.859Z" fill="#4390FF"/>
<path d="M115.235 266.225C114.918 266.225 114.706 266.225 114.389 266.225C114.389 266.225 114.389 266.014 114.389 265.908C114.389 265.38 114.178 264.851 114.072 264.323C114.072 264.112 113.755 264.217 113.861 264.323C113.861 264.957 114.072 266.331 114.072 266.331C114.072 266.859 114.178 267.388 114.601 267.705C114.601 267.705 114.812 267.705 114.812 267.599C114.812 267.388 114.812 267.176 114.601 266.965C114.812 266.965 115.023 267.071 115.129 267.176C115.235 267.176 115.34 267.071 115.235 266.965C115.129 266.859 114.918 266.754 114.706 266.648C114.706 266.648 114.706 266.648 114.601 266.648C114.812 266.648 115.023 266.648 115.235 266.648V266.542V266.225Z" fill="#4390FF"/>
<path d="M116.291 257.983C116.08 257.455 115.552 257.032 114.812 256.926C113.967 256.926 113.016 257.349 112.593 258.089C111.959 259.04 111.219 259.779 110.268 260.413C109.74 260.73 108.683 261.153 108.683 261.787C109.106 261.787 109.846 261.681 110.163 261.893C109.951 262.315 109.423 262.527 109.212 262.844C108.578 263.583 109.634 263.583 110.268 263.689C110.797 263.689 111.325 263.689 111.853 263.583C113.121 263.266 114.389 262.632 115.34 261.681C116.291 260.836 116.925 259.357 116.397 258.089L116.291 257.983Z" fill="#145FE2"/>
<path d="M302.378 79.0905C302.378 80.8098 301.002 82.2999 299.168 82.2999C297.334 82.2999 295.959 80.9244 295.959 79.0905C295.959 77.2565 297.334 75.881 299.168 75.881C301.002 75.881 302.378 77.2565 302.378 79.0905Z" fill="#0C6DBB" fill-opacity="0.1"/>
<path d="M266.271 21.5493C268.867 21.5493 270.971 19.4453 270.971 16.8498C270.971 14.2542 268.867 12.1502 266.271 12.1502C263.676 12.1502 261.572 14.2542 261.572 16.8498C261.572 19.4453 263.676 21.5493 266.271 21.5493Z" fill="#0C6DBB" fill-opacity="0.1"/>
<path d="M350.176 117.146C350.176 117.948 349.488 118.636 348.686 118.636C347.883 118.636 347.196 117.948 347.196 117.146C347.196 116.343 347.883 115.655 348.686 115.655C349.488 115.655 350.176 116.343 350.176 117.146Z" fill="#0C6DBB" fill-opacity="0.1"/>
<path d="M182.825 100.754C183.775 100.754 184.544 99.9846 184.544 99.035C184.544 98.0855 183.775 97.3157 182.825 97.3157C181.875 97.3157 181.106 98.0855 181.106 99.035C181.106 99.9846 181.875 100.754 182.825 100.754Z" fill="#0C6DBB" fill-opacity="0.1"/>
<path d="M2.8656 42.8694C4.44822 42.8694 5.73119 41.5864 5.73119 40.0038C5.73119 38.4212 4.44822 37.1382 2.8656 37.1382C1.28297 37.1382 0 38.4212 0 40.0038C0 41.5864 1.28297 42.8694 2.8656 42.8694Z" fill="#0C6DBB" fill-opacity="0.1"/>
<path d="M350.061 71.2961C350.061 72.9008 348.801 74.1617 347.196 74.1617C345.591 74.1617 344.33 72.9008 344.33 71.2961C344.33 69.6913 345.591 68.4305 347.196 68.4305C348.801 68.4305 350.061 69.6913 350.061 71.2961Z" fill="#0C6DBB" fill-opacity="0.1"/>
<path d="M306.504 33.1263C307.077 35.0749 308.567 36.6797 310.516 37.1381C308.567 37.7113 306.963 39.2014 306.504 41.15C305.931 39.2014 304.441 37.5966 302.492 37.1381C304.441 36.565 306.046 35.0749 306.504 33.1263Z" fill="#0C6DBB" fill-opacity="0.1"/>
<path d="M32.6678 0C33.241 1.94861 34.7311 3.55334 36.6797 4.01184C34.7311 4.58495 33.1263 6.07507 32.6678 8.02367C32.0947 6.07507 30.6046 4.47033 28.656 4.01184C30.6046 3.43872 32.2093 1.94861 32.6678 0Z" fill="#0C6DBB" fill-opacity="0.1"/>
<path d="M230.623 0C231.196 1.94861 232.686 3.55334 234.635 4.01184C232.686 4.58495 231.082 6.07507 230.623 8.02367C230.05 6.07507 228.56 4.47033 226.611 4.01184C228.56 3.43872 230.165 1.94861 230.623 0Z" fill="#0C6DBB" fill-opacity="0.1"/>
<path d="M60.8652 49.6321C61.4383 51.5807 62.9284 53.1855 64.8771 53.644C62.9284 54.2171 61.3237 55.7072 60.8652 57.6558C60.2921 55.7072 58.802 54.1025 56.8534 53.644C58.802 53.0709 60.4067 51.5807 60.8652 49.6321Z" fill="#0C6DBB" fill-opacity="0.1"/>
<path d="M389.377 65.5648C389.95 67.5135 391.441 69.1182 393.389 69.5767C391.441 70.1498 389.836 71.6399 389.377 73.5885C388.804 71.6399 387.314 70.0352 385.365 69.5767C387.314 69.0036 388.919 67.5135 389.377 65.5648Z" fill="#0C6DBB" fill-opacity="0.1"/>
<path d="M389.377 141.904C389.95 143.853 391.441 145.458 393.389 145.916C391.441 146.489 389.836 147.979 389.377 149.928C388.804 147.979 387.314 146.375 385.365 145.916C387.314 145.343 388.919 143.853 389.377 141.904Z" fill="#0C6DBB" fill-opacity="0.1"/>
<path d="M356.595 163.798C357.168 165.746 358.658 167.351 360.607 167.809C358.658 168.382 357.053 169.873 356.595 171.821C356.022 169.873 354.532 168.268 352.583 167.809C354.532 167.236 356.136 165.746 356.595 163.798Z" fill="#0C6DBB" fill-opacity="0.1"/>
<path d="M364.791 279.956H16.978C15.8703 279.956 15 279.086 15 277.978C15 276.87 15.8703 276 16.978 276H364.791C365.898 276 366.769 276.87 366.769 277.978C366.769 279.086 365.898 279.956 364.791 279.956Z" fill="#0A5796"/>
<defs>
<linearGradient id="paint0_linear_723_1133" x1="242.039" y1="210.22" x2="338.305" y2="114.06" gradientUnits="userSpaceOnUse">
<stop stop-color="white" stop-opacity="0.3"/>
<stop offset="1" stop-color="white" stop-opacity="0.6"/>
</linearGradient>
</defs>
</svg>
