<svg width="372" height="280" viewBox="0 0 372 280" fill="none" xmlns="http://www.w3.org/2000/svg">
<path d="M66.6468 66.8966C39.318 89.4839 75.8497 118.475 56.919 131.124C37.9883 143.774 -40.3939 168.461 38.5482 217.432C117.49 266.404 119.66 298.841 175.997 267.838C232.352 236.835 228.293 231.254 274.675 252.214C321.039 273.175 369.521 240.562 353.039 201.861C336.558 163.16 326.06 163.632 344.886 138.928C363.694 114.206 334.284 45.8138 269.496 98.6693C204.725 151.525 164.187 112.071 157.066 92.3008C149.945 72.5303 109.827 31.1872 66.6468 66.8791V66.8966Z" fill="#E4EEF6"/>
<path d="M248.928 279.368C248.928 279.368 262.172 222.436 295.975 182.038C302.186 174.62 314.223 178.941 314.276 188.616C314.416 216.75 305.458 262.765 248.928 279.368Z" fill="#0C6DBB"/>
<path d="M305.773 188.039C304.775 192.326 303.463 196.49 302.063 200.636C300.629 204.765 299.089 208.877 297.374 212.901C293.963 220.967 290.061 228.84 285.6 236.398C283.36 240.16 281.016 243.886 278.496 247.473C277.254 249.293 275.924 251.025 274.63 252.809C273.282 254.541 271.953 256.291 270.518 257.953C264.919 264.724 258.656 270.935 251.762 276.324C251.552 276.481 251.255 276.446 251.098 276.237C250.94 276.044 250.975 275.764 251.15 275.607C257.466 269.641 263.327 263.254 268.611 256.396C269.958 254.716 271.2 252.932 272.513 251.217C273.755 249.45 275.032 247.701 276.204 245.898C276.799 244.989 277.429 244.114 278.006 243.204L279.756 240.475C280.333 239.565 280.893 238.638 281.453 237.71C282.03 236.8 282.573 235.856 283.115 234.928C284.217 233.074 285.285 231.184 286.352 229.295C287.384 227.388 288.417 225.498 289.396 223.573C291.408 219.742 293.28 215.84 295.118 211.904C296.92 207.967 298.652 203.995 300.279 199.971C301.923 195.965 303.463 191.888 304.863 187.794C304.95 187.532 305.213 187.409 305.458 187.497C305.685 187.584 305.825 187.812 305.773 188.057V188.039Z" fill="#DCE5FE"/>
<path d="M261 275.204C261 275.204 288.749 235.331 319.769 225.166C327.45 222.646 334.064 231.097 329.795 237.973C321.116 251.917 301.906 271.128 261.018 275.204H261Z" fill="#9EC5E4"/>
<path d="M326.838 231.272C324.458 233.441 322.026 235.506 319.542 237.553C318.3 238.568 317.057 239.565 315.798 240.562C314.538 241.542 313.278 242.539 312.001 243.519C306.91 247.403 301.678 251.112 296.325 254.646C293.665 256.431 290.918 258.111 288.224 259.825L284.095 262.292C283.413 262.695 282.713 263.115 282.03 263.517L279.931 264.689C274.367 267.873 268.593 270.69 262.785 273.402C262.575 273.49 262.347 273.402 262.242 273.21C262.155 273.017 262.242 272.772 262.435 272.667L266.721 270.533L268.873 269.466C269.591 269.098 270.291 268.713 270.99 268.346L275.224 266.106C276.624 265.337 278.006 264.532 279.388 263.744L281.471 262.555L283.518 261.33L287.629 258.863C290.324 257.148 293.053 255.486 295.695 253.684C298.372 251.935 300.996 250.115 303.62 248.295L307.522 245.496L311.371 242.644C312.648 241.699 313.908 240.702 315.185 239.74C316.445 238.76 317.705 237.763 318.947 236.783C321.449 234.788 323.916 232.759 326.313 230.677C326.488 230.519 326.733 230.537 326.89 230.712C327.03 230.869 327.013 231.132 326.855 231.272H326.838Z" fill="#DCE5FE"/>
<path d="M133.237 256.064C120.587 258.601 104.421 244.796 99.2068 229.715C93.853 214.196 103.668 207.705 103.598 186.184C103.511 161.725 90.7912 158.051 82.3756 125.088C80.4861 117.653 69.4986 74.6123 83.1105 66.5466C95.7076 59.0933 131.067 80.491 137.261 107.89C141.687 127.415 128.023 135.621 133.237 158.383C137.821 178.346 149.84 178.626 154.459 197.889C160.076 221.334 149.858 252.739 133.237 256.064Z" fill="#9EC5E4"/>
<path d="M132.309 261.995C135.721 235.646 129.072 195.002 122.879 165.557C116.178 133.661 108.585 107.645 108.515 107.382L107.465 107.697C107.535 107.96 115.128 133.941 121.812 165.784C127.97 195.16 134.619 235.663 131.224 261.855L132.309 261.995Z" fill="#DCE5FE"/>
<path d="M120.954 265.669C137.558 257.026 143.244 227.318 133.796 217.66C127.428 211.134 118.278 217.992 109.46 211.239C98.1921 202.613 106.485 186.342 97.6322 165.259C90.0914 147.308 72.018 130.337 61.4504 133.819C50.3929 137.458 44.5668 164.524 54.0146 180.813C60.1557 191.398 69.5511 191.923 71.5981 201.773C73.9601 213.198 62.5352 218.412 62.4652 229.487C62.3602 249.398 98.9969 277.111 120.954 265.669Z" fill="#0C6DBB"/>
<path d="M111.996 273.262C112.101 273.262 112.189 273.245 112.294 273.192C112.626 273.035 112.766 272.632 112.609 272.282C90.5988 226.933 84.1428 174.322 84.0903 173.797C84.0378 173.43 83.7054 173.167 83.338 173.202C82.9706 173.255 82.7081 173.587 82.7431 173.955C82.8131 174.48 89.2866 227.318 111.402 272.877C111.524 273.122 111.752 273.262 112.014 273.262H111.996Z" fill="#DCE5FE"/>
<path d="M66.8568 187.444C66.9268 187.444 66.9968 187.427 67.0492 187.374C67.1892 187.269 67.2067 187.059 67.1017 186.919C60.1558 177.996 52.4576 164.612 55.2219 151.42C56.8666 143.564 61.5205 139.47 61.573 139.435C61.713 139.313 61.7304 139.12 61.608 138.98C61.4855 138.84 61.293 138.823 61.1531 138.945C60.9606 139.12 56.2892 143.232 54.5921 151.28C53.0349 158.698 53.8572 170.963 66.5943 187.304C66.6643 187.392 66.7518 187.427 66.8568 187.427V187.444Z" fill="#DCE5FE"/>
<path d="M122.459 261.697C122.564 261.697 122.669 261.645 122.722 261.557C133.394 245.968 137.033 233.931 133.534 225.778C130.42 218.517 122.582 217.17 122.494 217.152C122.319 217.117 122.144 217.24 122.127 217.415C122.092 217.59 122.214 217.765 122.389 217.782C122.459 217.782 129.982 219.095 132.939 226.023C136.333 233.966 132.712 245.793 122.179 261.172C122.074 261.312 122.109 261.522 122.267 261.627C122.319 261.662 122.389 261.68 122.442 261.68L122.459 261.697Z" fill="#F0F0F0"/>
<path d="M252.814 83.56L126.908 82.7662C122.765 82.7481 119.462 86.3024 119.671 90.5785L128.341 275.222H268.441L276.219 110.262L252.814 83.5781V83.56Z" fill="white"/>
<path d="M257.896 108.922C253.784 108.782 250.635 105.248 250.95 101.136L252.297 84.0427L276.092 109.587L257.878 108.922H257.896Z" fill="#0C6DBB"/>
<path opacity="0.8" d="M245.351 106.578H177.502C175.542 106.578 173.95 108.17 173.95 110.129C173.95 112.089 175.542 113.681 177.502 113.681H245.351C247.311 113.681 248.903 112.089 248.903 110.129C248.903 108.17 247.311 106.578 245.351 106.578Z" fill="#9EC5E4"/>
<path opacity="0.8" d="M247.503 122.744H177.607C175.577 122.744 173.95 124.336 173.95 126.296C173.95 128.255 175.594 129.847 177.607 129.847H247.503C249.533 129.847 251.16 128.255 251.16 126.296C251.16 124.336 249.515 122.744 247.503 122.744Z" fill="#9EC5E4"/>
<path opacity="0.8" d="M247.503 136.636H177.607C175.577 136.636 173.95 138.228 173.95 140.187C173.95 142.147 175.594 143.739 177.607 143.739H247.503C249.533 143.739 251.16 142.147 251.16 140.187C251.16 138.228 249.515 136.636 247.503 136.636Z" fill="#9EC5E4"/>
<path opacity="0.8" d="M247.503 150.528H177.607C175.577 150.528 173.95 152.12 173.95 154.079C173.95 156.039 175.594 157.631 177.607 157.631H247.503C249.533 157.631 251.16 156.039 251.16 154.079C251.16 152.12 249.515 150.528 247.503 150.528Z" fill="#9EC5E4"/>
<path opacity="0.8" d="M245.841 172.188H144.049C141.11 172.188 138.713 173.78 138.713 175.739C138.713 177.699 141.092 179.291 144.049 179.291H245.841C248.78 179.291 251.177 177.699 251.177 175.739C251.177 173.78 248.798 172.188 245.841 172.188Z" fill="#9EC5E4"/>
<path opacity="0.8" d="M245.841 186.079H144.049C141.11 186.079 138.713 187.672 138.713 189.631C138.713 191.591 141.092 193.183 144.049 193.183H245.841C248.78 193.183 251.177 191.591 251.177 189.631C251.177 187.672 248.798 186.079 245.841 186.079Z" fill="#9EC5E4"/>
<path opacity="0.8" d="M245.841 199.971H144.049C141.11 199.971 138.713 201.564 138.713 203.523C138.713 205.483 141.092 207.075 144.049 207.075H245.841C248.78 207.075 251.177 205.483 251.177 203.523C251.177 201.564 248.798 199.971 245.841 199.971Z" fill="#9EC5E4"/>
<path opacity="0.8" d="M245.841 221.614H144.049C141.11 221.614 138.713 223.206 138.713 225.166C138.713 227.125 141.092 228.717 144.049 228.717H245.841C248.78 228.717 251.177 227.125 251.177 225.166C251.177 223.206 248.798 221.614 245.841 221.614Z" fill="#9EC5E4"/>
<path opacity="0.8" d="M245.841 235.506H144.049C141.11 235.506 138.713 237.098 138.713 239.057C138.713 241.017 141.092 242.609 144.049 242.609H245.841C248.78 242.609 251.177 241.017 251.177 239.057C251.177 237.098 248.798 235.506 245.841 235.506Z" fill="#9EC5E4"/>
<path opacity="0.8" d="M245.841 249.415H144.049C141.11 249.415 138.713 251.007 138.713 252.967C138.713 254.926 141.092 256.519 144.049 256.519H245.841C248.78 256.519 251.177 254.926 251.177 252.967C251.177 251.007 248.798 249.415 245.841 249.415Z" fill="#9EC5E4"/>
<path d="M159.463 99.4742H110.212C106.501 99.4742 103.493 102.482 103.493 106.193V150.912C103.493 154.623 106.501 157.631 110.212 157.631H159.463C163.174 157.631 166.182 154.623 166.182 150.912V106.193C166.182 102.482 163.174 99.4742 159.463 99.4742Z" fill="#0A5796"/>
<path d="M153.27 150.982H148.003C146.849 150.982 145.816 150.23 145.466 149.128L143.297 142.374C143.034 141.57 142.3 141.027 141.46 141.027H128.373C127.533 141.027 126.781 141.57 126.518 142.374L124.384 149.128C124.034 150.23 123.001 150.982 121.847 150.982H116.668C114.813 150.982 113.536 149.145 114.166 147.413L127.533 110.672C128.495 108.012 131.032 106.228 133.884 106.228H136.351C139.203 106.228 141.757 108.03 142.72 110.724L155.772 147.431C156.384 149.163 155.107 150.982 153.27 150.982ZM139.868 131.037L135.669 117.25C135.406 116.41 134.216 116.41 133.972 117.25C132.869 121.117 130.875 127.608 129.807 131.02C129.458 132.139 130.297 133.276 131.47 133.276H138.206C139.378 133.276 140.218 132.139 139.868 131.02V131.037Z" fill="white"/>
<path d="M107.692 137.773H107.378V110.689C107.378 107.172 110.229 104.321 113.746 104.321H125.311V104.635H113.746C110.422 104.635 107.71 107.347 107.71 110.672V137.755L107.692 137.773Z" fill="#BDD0FB"/>
<path d="M348.805 279.167H1.97243C0.867871 279.167 0 278.299 0 277.195C0 276.09 0.867871 275.222 1.97243 275.222H348.805C349.91 275.222 350.777 276.09 350.777 277.195C350.777 278.299 349.91 279.167 348.805 279.167Z" fill="#0A5796"/>
<path d="M285.346 74.6356C285.346 76.2581 284.048 77.6643 282.317 77.6643C280.586 77.6643 279.288 76.3662 279.288 74.6356C279.288 72.9049 280.586 71.6069 282.317 71.6069C284.048 71.6069 285.346 72.9049 285.346 74.6356Z" fill="#0C6DBB" fill-opacity="0.1"/>
<path d="M251.273 20.3355C253.722 20.3355 255.708 18.35 255.708 15.9007C255.708 13.4513 253.722 11.4658 251.273 11.4658C248.824 11.4658 246.838 13.4513 246.838 15.9007C246.838 18.35 248.824 20.3355 251.273 20.3355Z" fill="#0C6DBB" fill-opacity="0.1"/>
<path d="M330.452 110.547C330.452 111.304 329.803 111.953 329.046 111.953C328.288 111.953 327.639 111.304 327.639 110.547C327.639 109.79 328.288 109.141 329.046 109.141C329.803 109.141 330.452 109.79 330.452 110.547Z" fill="#0C6DBB" fill-opacity="0.1"/>
<path d="M2.70419 40.4547C4.19767 40.4547 5.40838 39.244 5.40838 37.7505C5.40838 36.257 4.19767 35.0463 2.70419 35.0463C1.21071 35.0463 0 36.257 0 37.7505C0 39.244 1.21071 40.4547 2.70419 40.4547Z" fill="#0C6DBB" fill-opacity="0.1"/>
<path d="M330.344 67.2802C330.344 68.7946 329.154 69.9844 327.639 69.9844C326.125 69.9844 324.935 68.7946 324.935 67.2802C324.935 65.7659 326.125 64.576 327.639 64.576C329.154 64.576 330.344 65.7659 330.344 67.2802Z" fill="#0C6DBB" fill-opacity="0.1"/>
<path d="M289.24 31.2604C289.781 33.0993 291.187 34.6136 293.026 35.0463C291.187 35.5871 289.673 36.9933 289.24 38.8322C288.699 36.9933 287.293 35.479 285.454 35.0463C287.293 34.5055 288.807 33.0993 289.24 31.2604Z" fill="#0C6DBB" fill-opacity="0.1"/>
<path d="M30.8277 0C31.3686 1.83885 32.7747 3.35319 34.6136 3.78586C32.7747 4.3267 31.2604 5.73288 30.8277 7.57173C30.2869 5.73288 28.8807 4.21853 27.0419 3.78586C28.8807 3.24503 30.3951 1.83885 30.8277 0Z" fill="#0C6DBB" fill-opacity="0.1"/>
<path d="M217.633 0C218.174 1.83885 219.58 3.35319 221.419 3.78586C219.58 4.3267 218.066 5.73288 217.633 7.57173C217.092 5.73288 215.686 4.21853 213.847 3.78586C215.686 3.24503 217.2 1.83885 217.633 0Z" fill="#0C6DBB" fill-opacity="0.1"/>
<path d="M57.437 46.8365C57.9778 48.6754 59.384 50.1897 61.2228 50.6224C59.384 51.1632 57.8696 52.5694 57.437 54.4082C56.8961 52.5694 55.49 51.055 53.6511 50.6224C55.49 50.0815 57.0043 48.6754 57.437 46.8365Z" fill="#0C6DBB" fill-opacity="0.1"/>
<path d="M367.445 61.8718C367.986 63.7106 369.392 65.225 371.231 65.6577C369.392 66.1985 367.878 67.6047 367.445 69.4435C366.904 67.6047 365.498 66.0903 363.659 65.6577C365.498 65.1168 367.012 63.7106 367.445 61.8718Z" fill="#0C6DBB" fill-opacity="0.1"/>
<path d="M367.445 133.911C367.986 135.75 369.392 137.265 371.231 137.697C369.392 138.238 367.878 139.644 367.445 141.483C366.904 139.644 365.498 138.13 363.659 137.697C365.498 137.156 367.012 135.75 367.445 133.911Z" fill="#0C6DBB" fill-opacity="0.1"/>
<path d="M336.509 154.571C337.05 156.41 338.456 157.925 340.295 158.357C338.456 158.898 336.942 160.304 336.509 162.143C335.968 160.304 334.562 158.79 332.723 158.357C334.562 157.816 336.076 156.41 336.509 154.571Z" fill="#0C6DBB" fill-opacity="0.1"/>
</svg>
