<svg width="24" height="25" viewBox="0 0 24 25" fill="none" xmlns="http://www.w3.org/2000/svg">
<path d="M10 9.12016C10.1762 8.61928 10.524 8.19692 10.9817 7.9279C11.4395 7.65887 11.9777 7.56052 12.501 7.65029C13.0243 7.74005 13.499 8.01213 13.8409 8.41833C14.1829 8.82453 14.37 9.33864 14.3692 9.8696C14.3692 11.3685 12.1209 12.1179 12.1209 12.1179M12.1499 15.1179H12.1599M9.9 19.8179L11.36 21.7646C11.5771 22.0541 11.6857 22.1988 11.8188 22.2506C11.9353 22.2959 12.0647 22.2959 12.1812 22.2506C12.3143 22.1988 12.4229 22.0541 12.64 21.7646L14.1 19.8179C14.3931 19.427 14.5397 19.2316 14.7185 19.0824C14.9569 18.8835 15.2383 18.7427 15.5405 18.6714C15.7671 18.6179 16.0114 18.6179 16.5 18.6179C17.8978 18.6179 18.5967 18.6179 19.1481 18.3895C19.8831 18.0851 20.4672 17.501 20.7716 16.766C21 16.2146 21 15.5157 21 14.1179V8.41792C21 6.73776 21 5.89768 20.673 5.25595C20.3854 4.69146 19.9265 4.23252 19.362 3.9449C18.7202 3.61792 17.8802 3.61792 16.2 3.61792H7.8C6.11984 3.61792 5.27976 3.61792 4.63803 3.9449C4.07354 4.23252 3.6146 4.69146 3.32698 5.25595C3 5.89768 3 6.73776 3 8.41792V14.1179C3 15.5157 3 16.2146 3.22836 16.766C3.53284 17.501 4.11687 18.0851 4.85195 18.3895C5.40326 18.6179 6.10218 18.6179 7.5 18.6179C7.98858 18.6179 8.23287 18.6179 8.45951 18.6714C8.76169 18.7427 9.04312 18.8835 9.2815 19.0824C9.46028 19.2316 9.60685 19.427 9.9 19.8179Z" stroke="#0C6DBB" stroke-width="2" stroke-linecap="round" stroke-linejoin="round"/>
</svg>
