<svg width="24" height="24" viewBox="0 0 24 24" fill="none" xmlns="http://www.w3.org/2000/svg">
<path d="M6 6.43945L10.5 10.9395M6 6.43945H3L2 3.43945L3 2.43945L6 3.43945V6.43945ZM19.259 3.18046L16.6314 5.80808C16.2354 6.2041 16.0373 6.4021 15.9632 6.63043C15.8979 6.83128 15.8979 7.04762 15.9632 7.24847C16.0373 7.4768 16.2354 7.6748 16.6314 8.07082L16.8686 8.30808C17.2646 8.7041 17.4627 8.9021 17.691 8.97629C17.8918 9.04155 18.1082 9.04155 18.309 8.97629C18.5373 8.9021 18.7354 8.7041 19.1314 8.30808L21.5893 5.85017C21.854 6.49433 22 7.19984 22 7.93945C22 10.9771 19.5376 13.4395 16.5 13.4395C16.1338 13.4395 15.7759 13.4037 15.4298 13.3354C14.9436 13.2396 14.7005 13.1916 14.5532 13.2063C14.3965 13.2219 14.3193 13.2454 14.1805 13.3197C14.0499 13.3896 13.919 13.5205 13.657 13.7825L6.5 20.9395C5.67157 21.7679 4.32843 21.7679 3.5 20.9395C2.67157 20.1111 2.67157 18.7679 3.5 17.9395L10.657 10.7825C10.919 10.5205 11.0499 10.3895 11.1198 10.2589C11.1941 10.1201 11.2176 10.0429 11.2332 9.88626C11.2479 9.7389 11.1999 9.49583 11.1041 9.00969C11.0358 8.66351 11 8.30566 11 7.93945C11 4.90188 13.4624 2.43945 16.5 2.43945C17.5055 2.43945 18.448 2.70927 19.259 3.18046ZM12.0001 15.4394L17.5 20.9394C18.3284 21.7678 19.6716 21.7678 20.5 20.9394C21.3284 20.111 21.3284 18.7678 20.5 17.9394L15.9753 13.4148C15.655 13.3845 15.3427 13.3267 15.0408 13.2438C14.6517 13.137 14.2249 13.2146 13.9397 13.4998L12.0001 15.4394Z" stroke="#0C6DBB" stroke-width="2" stroke-linecap="round" stroke-linejoin="round"/>
</svg>
