<svg width="24" height="25" viewBox="0 0 24 25" fill="none" xmlns="http://www.w3.org/2000/svg">
<path d="M19 4.95117L19.0001 4.95117C19.3786 4.95105 19.7431 5.09398 20.0206 5.35129C20.2957 5.60641 20.4651 5.95529 20.4956 6.329L20.5 6.45953V16.4512V16.4513C20.5001 16.8298 20.3572 17.1943 20.0999 17.4717C19.8447 17.7469 19.4959 17.9163 19.1222 17.9468L18.9917 17.9512H4.99999H4.99983C4.6214 17.9513 4.25691 17.8084 3.97942 17.551C3.70431 17.2959 3.53488 16.9471 3.50434 16.5733L3.49999 16.4428L3.49999 6.45117L3.49999 6.45101C3.49987 6.07258 3.6428 5.70809 3.90011 5.4306C4.15523 5.15549 4.50411 4.98606 4.87783 4.95552L5.00832 4.95117H19ZM19.5 6.45117V5.95117H19H4.99999H4.49999V6.45117V16.4512V16.9512H4.99999H19H19.5V16.4512V6.45117ZM20.9994 19.9512C21.1269 19.9513 21.2495 20.0001 21.3421 20.0876C21.4348 20.1751 21.4906 20.2947 21.498 20.4219C21.5055 20.5491 21.4641 20.6744 21.3823 20.7721C21.3031 20.8667 21.1918 20.9286 21.07 20.9461L20.985 20.9512H3.00054C2.87311 20.951 2.75053 20.9022 2.65786 20.8147C2.56519 20.7273 2.50943 20.6077 2.50196 20.4805C2.49449 20.3533 2.53588 20.228 2.61768 20.1303C2.69687 20.0356 2.80815 19.9738 2.93 19.9563L3.01493 19.9512H20.9994Z" fill="#010101" stroke="#0C6DBB"/>
</svg>
